<?xml version="1.0" standalone="no"?>
<!DOCTYPE svg PUBLIC "-//W3C//DTD SVG 20010904//EN"
 "http://www.w3.org/TR/2001/REC-SVG-20010904/DTD/svg10.dtd">
<svg version="1.0" xmlns="http://www.w3.org/2000/svg"
 width="2048.000000pt" height="2048.000000pt" viewBox="0 0 2048.000000 2048.000000"
 preserveAspectRatio="xMidYMid meet">

<g transform="translate(0.000000,2048.000000) scale(0.100000,-0.100000)"
fill="#000000" stroke="#000000" stroke-width="80" stroke-linejoin="round" stroke-linecap="round">
<path d="M8285 19010 c-262 -12 -326 -23 -635 -114 -85 -25 -225 -63 -310 -85
-195 -50 -524 -137 -700 -186 -74 -20 -151 -40 -170 -45 -19 -5 -100 -27 -180
-50 -80 -22 -179 -49 -220 -60 -41 -11 -115 -31 -165 -44 -49 -13 -162 -42
-250 -65 -88 -23 -230 -62 -315 -87 -181 -52 -296 -83 -475 -129 -71 -18 -206
-54 -300 -79 -93 -24 -224 -59 -290 -76 -66 -17 -172 -46 -235 -65 -63 -19
-151 -43 -195 -54 -44 -11 -107 -27 -140 -36 -33 -9 -121 -32 -195 -51 -74
-20 -182 -48 -240 -64 -58 -15 -127 -34 -155 -41 -27 -7 -88 -23 -135 -36 -47
-13 -175 -48 -285 -78 -348 -96 -377 -105 -500 -157 -235 -98 -335 -166 -335
-226 -1 -262 3 -1641 5 -1762 2 -91 6 -574 9 -1075 3 -500 8 -1088 11 -1305 3
-217 7 -651 10 -965 8 -900 15 -1591 20 -2105 3 -261 7 -770 10 -1130 3 -360
7 -806 10 -990 3 -184 8 -702 11 -1150 3 -448 7 -846 9 -885 2 -38 6 -529 10
-1090 4 -561 10 -1117 14 -1235 7 -205 9 -218 34 -270 50 -103 86 -129 210
-150 l67 -12 0 -65 c0 -37 6 -76 15 -93 37 -71 143 -109 325 -117 226 -10 400
24 472 93 l38 35 172 -30 c95 -17 202 -35 238 -41 36 -5 88 -14 115 -20 91
-19 551 -100 1145 -201 129 -22 370 -64 535 -94 403 -73 712 -127 995 -176
574 -98 647 -110 682 -116 35 -5 37 -7 30 -32 -18 -66 -7 -129 42 -226 67
-132 179 -242 300 -296 26 -11 212 -47 467 -89 233 -39 485 -82 559 -95 74
-13 153 -26 175 -30 22 -3 94 -15 160 -27 66 -11 156 -27 200 -34 44 -8 109
-19 145 -24 35 -5 116 -19 180 -30 63 -12 275 -48 470 -81 195 -33 404 -69
465 -79 149 -27 176 -21 324 74 100 65 132 110 172 233 20 63 25 72 43 68 12
-3 64 -12 116 -20 52 -8 115 -19 140 -24 25 -5 134 -24 243 -42 l197 -33 0
-61 c0 -81 24 -119 94 -151 177 -81 561 -83 722 -4 84 41 104 72 104 161 0 72
5 79 60 79 43 0 104 23 300 112 96 44 213 97 260 118 47 21 134 61 194 89 59
28 110 51 112 51 1 0 63 27 136 61 73 33 147 67 163 74 17 7 93 43 170 78 77
36 205 95 285 130 80 36 252 115 383 176 131 61 240 111 242 111 1 0 41 17 87
39 45 21 135 62 198 91 63 29 198 91 300 137 102 47 208 96 237 109 28 13 54
24 56 24 3 0 47 20 98 44 340 159 432 202 580 269 91 42 215 99 275 128 254
121 213 110 439 112 213 3 247 8 340 57 59 32 74 62 74 161 l1 65 115 53 c65
31 132 70 155 91 l41 38 -1 317 -2 318 40 41 c82 86 258 322 301 405 7 14 33
58 56 96 148 243 323 684 421 1060 213 827 233 1827 48 2515 -31 116 -106 341
-132 395 -11 22 -34 72 -52 110 -137 296 -377 548 -595 626 -56 21 -65 27 -61
44 3 11 8 560 11 1220 4 670 11 1238 16 1285 43 376 43 356 10 394 -14 16 -16
118 -13 1075 3 992 5 1060 22 1121 10 36 46 173 80 305 33 132 70 272 80 310
32 114 90 388 112 529 26 164 36 536 18 658 -32 221 -122 421 -253 565 l-50
54 2 144 c3 186 -10 218 -119 306 -85 68 -263 139 -410 163 -123 19 -368 53
-517 71 -65 8 -242 30 -393 49 -151 19 -354 44 -450 56 -96 12 -260 32 -365
45 -104 14 -287 36 -405 50 -118 14 -255 32 -305 40 -49 8 -182 25 -295 39
-211 26 -1071 134 -1125 141 -16 3 -104 13 -195 24 -91 11 -307 38 -480 60
-635 81 -1027 131 -1115 141 -336 40 -436 53 -565 70 -80 11 -226 29 -325 40
-99 11 -229 27 -290 35 -60 8 -155 20 -210 25 -55 6 -107 13 -115 15 -8 2 -40
7 -70 10 -30 3 -97 13 -149 21 -114 18 -313 43 -676 84 -148 18 -292 36 -320
42 -65 13 -335 17 -550 8z m475 -100 c36 -5 148 -18 250 -30 102 -11 232 -27
290 -35 58 -8 130 -17 160 -20 30 -3 66 -7 80 -9 27 -5 707 -89 855 -107 50
-6 131 -17 180 -24 50 -8 214 -28 365 -45 151 -17 325 -37 385 -45 114 -15
539 -69 825 -105 91 -12 221 -27 290 -35 191 -22 193 -22 385 -50 99 -14 216
-30 260 -35 85 -10 230 -28 280 -34 208 -28 399 -52 635 -81 157 -19 425 -53
595 -74 171 -22 337 -42 370 -46 33 -3 87 -10 120 -15 33 -5 134 -19 225 -30
91 -11 275 -34 410 -50 248 -31 445 -56 710 -91 80 -11 267 -35 415 -54 285
-36 314 -41 324 -51 13 -13 -49 -51 -120 -73 -41 -13 -227 -74 -414 -136 -187
-62 -495 -164 -685 -225 -190 -62 -430 -140 -535 -174 -104 -35 -251 -82 -325
-105 -74 -23 -157 -51 -185 -61 -27 -10 -111 -37 -185 -60 -74 -23 -142 -45
-150 -49 -9 -5 -90 -32 -180 -60 -234 -74 -582 -186 -735 -236 -169 -56 -387
-126 -660 -214 -617 -197 -677 -214 -815 -226 -41 -4 -84 -9 -95 -11 -47 -10
-311 -3 -445 10 -130 13 -439 49 -530 61 -19 3 -91 12 -160 20 -149 19 -143
18 -395 50 -263 34 -253 33 -380 45 -60 7 -229 27 -375 46 -146 18 -362 45
-480 58 -118 14 -303 36 -410 50 -248 33 -418 54 -545 69 l-100 12 1 102 c0
94 2 105 30 150 17 27 49 61 76 78 l46 30 -5 65 c-3 36 -11 71 -18 79 -13 13
-70 21 -570 81 -93 11 -334 41 -535 66 -461 57 -504 62 -621 70 -93 7 -97 6
-162 -25 -73 -35 -127 -89 -160 -161 -15 -34 -22 -74 -26 -170 l-6 -125 -45 3
c-54 3 -414 47 -560 67 -58 8 -204 26 -325 40 -121 14 -269 32 -330 40 -218
28 -352 45 -490 60 -77 9 -189 23 -250 30 -60 8 -150 19 -200 25 -49 5 -160
19 -245 29 -85 11 -265 34 -400 50 -135 17 -330 42 -435 56 -104 14 -245 32
-313 40 -68 8 -136 18 -150 21 -33 8 -99 41 -106 53 -6 8 100 40 354 106 69
18 202 54 295 80 94 26 195 54 225 61 30 7 102 26 160 42 93 27 202 57 295 82
17 4 73 19 125 33 52 14 183 49 290 76 107 28 218 57 245 65 151 44 202 58
325 90 74 20 178 47 230 62 52 14 102 27 110 29 67 16 334 87 515 137 121 33
301 82 400 108 99 26 277 73 395 104 118 32 269 73 335 91 242 69 303 86 470
129 264 68 446 116 495 130 192 57 332 85 490 100 83 7 481 5 540 -4z m8584
-1099 c98 -34 193 -84 249 -134 l39 -33 -44 -13 c-23 -7 -106 -34 -183 -60
-77 -27 -214 -72 -305 -100 -91 -29 -181 -59 -200 -66 -19 -8 -51 -19 -70 -24
-19 -5 -68 -22 -109 -36 -41 -15 -86 -29 -100 -32 -14 -2 -45 -12 -70 -23 -25
-10 -242 -82 -481 -160 -239 -78 -527 -173 -640 -210 -113 -37 -333 -109 -490
-160 -362 -117 -360 -116 -390 -128 -14 -6 -153 -52 -310 -102 -157 -51 -328
-107 -380 -125 -52 -19 -117 -40 -145 -48 -27 -9 -81 -27 -120 -40 -38 -14
-117 -40 -175 -57 -134 -41 -781 -257 -840 -280 -29 -11 -88 -20 -165 -24 -66
-4 -232 -13 -370 -21 -325 -19 -422 -20 -525 -6 -47 6 -143 18 -215 26 -71 8
-200 24 -285 35 -172 23 -251 33 -450 56 -74 9 -216 26 -315 39 -157 21 -1028
130 -1355 170 -63 8 -151 19 -195 25 -132 18 -1504 189 -1725 215 -239 29
-326 40 -470 59 -58 8 -199 26 -315 41 -115 14 -316 39 -445 56 -232 29 -303
38 -470 59 -47 6 -245 31 -440 56 -195 25 -499 63 -675 84 -319 40 -480 60
-820 105 -99 13 -272 35 -385 50 -113 14 -257 32 -320 40 -63 8 -135 17 -160
20 -296 37 -408 53 -425 62 -11 6 -33 25 -49 42 l-29 31 124 59 c116 56 239
107 284 117 12 3 30 -5 46 -20 34 -31 114 -71 159 -79 78 -14 326 -46 820
-107 228 -28 521 -64 650 -80 129 -16 334 -41 455 -55 121 -15 355 -44 520
-65 165 -21 332 -42 370 -45 39 -4 79 -9 90 -11 11 -3 74 -11 140 -19 146 -17
784 -93 840 -100 22 -3 119 -14 215 -25 96 -11 225 -27 285 -35 61 -8 198 -23
305 -35 107 -11 258 -29 335 -40 220 -30 505 -68 560 -74 42 -5 475 -57 585
-71 19 -2 94 -11 165 -20 72 -8 182 -22 245 -30 63 -9 248 -31 410 -51 162
-19 491 -59 730 -89 239 -30 455 -57 480 -60 25 -3 103 -12 174 -21 71 -8 186
-21 255 -29 69 -8 203 -23 296 -34 239 -28 427 -35 580 -22 223 20 276 33 775
194 36 11 70 21 75 23 6 1 114 36 240 77 127 41 325 105 440 142 116 37 298
96 405 132 107 36 211 69 230 73 19 5 136 42 260 83 124 41 340 112 480 158
140 45 320 103 400 129 80 27 251 82 380 124 617 201 1252 410 1315 434 55 22
75 35 100 69 16 23 38 42 47 42 9 1 55 -12 102 -28z m293 -792 c-3 -292 -7
-532 -9 -533 -2 -1 -48 -18 -103 -38 -55 -20 -158 -57 -230 -83 -71 -26 -301
-105 -510 -175 -209 -71 -463 -158 -565 -193 -339 -118 -454 -158 -570 -197
-384 -130 -507 -172 -525 -180 -11 -5 -121 -43 -245 -84 -124 -41 -272 -92
-330 -112 -145 -51 -582 -201 -835 -286 -115 -39 -246 -84 -290 -99 -308 -105
-825 -279 -832 -279 -4 0 -7 217 -6 483 1 265 3 518 3 562 l0 81 33 11 c17 6
140 46 272 88 132 42 488 159 790 260 610 203 1016 335 1028 335 5 0 23 6 40
14 18 8 235 81 482 162 1751 572 2346 769 2375 785 8 5 19 9 24 9 5 0 6 -220
3 -531z m-10866 272 c30 -5 81 -12 114 -15 33 -4 110 -13 170 -20 61 -8 155
-20 210 -26 127 -14 140 -16 375 -45 107 -13 224 -26 260 -30 108 -10 375 -46
379 -51 2 -2 -16 -24 -40 -48 -84 -82 -119 -180 -119 -331 l0 -71 -62 8 c-60
8 -788 97 -1123 138 -88 11 -245 29 -350 40 -104 12 -196 23 -203 25 -20 7
-14 189 7 253 23 66 82 137 134 161 47 22 158 27 248 12z m11092 -229 c54
-104 86 -203 108 -341 29 -178 23 -460 -16 -676 -33 -189 -81 -400 -140 -625
-25 -96 -62 -236 -81 -310 -19 -74 -41 -155 -49 -180 -30 -94 -144 -567 -185
-770 -5 -25 -12 -56 -15 -70 -20 -91 -98 -587 -117 -742 l-23 -188 -52 0 c-36
0 -53 4 -53 13 0 7 13 118 29 247 47 372 115 743 195 1060 96 378 138 538 162
620 29 93 111 413 150 580 85 366 115 566 115 773 -1 176 -14 291 -47 392 -27
81 -99 235 -115 246 -5 3 -8 38 -7 78 l3 73 52 -57 c28 -31 67 -86 86 -123z
m-15850 -604 c3 -318 3 -578 1 -578 -2 0 -17 14 -32 31 l-27 30 -3 577 -4 577
30 -30 30 -30 5 -577z m6346 600 c0 -27 -8 -39 -42 -63 -68 -48 -98 -121 -104
-250 -5 -80 -9 -105 -20 -105 -23 0 -27 30 -16 140 12 124 31 168 107 251 60
66 76 72 75 27z m-6164 -53 c61 -6 168 -20 425 -55 80 -10 187 -24 238 -30 52
-6 108 -12 125 -15 46 -6 115 -14 172 -20 28 -3 59 -8 71 -10 12 -3 97 -13
190 -24 93 -11 313 -38 489 -61 176 -22 336 -42 355 -45 19 -2 141 -18 270
-34 129 -17 312 -40 405 -52 94 -11 220 -27 280 -35 114 -15 167 -21 425 -53
210 -26 787 -100 819 -105 14 -3 53 -7 86 -11 33 -3 105 -12 160 -20 55 -8
163 -21 240 -30 77 -8 149 -17 160 -19 11 -3 67 -10 125 -16 58 -6 186 -22
285 -35 99 -14 257 -34 350 -45 94 -11 235 -29 315 -39 80 -11 206 -27 280
-36 74 -9 272 -34 440 -55 168 -22 366 -46 440 -55 180 -20 479 -58 1025 -130
105 -14 231 -30 280 -35 50 -5 162 -19 250 -30 88 -11 212 -27 275 -34 63 -8
181 -22 263 -32 l147 -19 0 -598 0 -598 -82 6 c-46 4 -168 18 -273 32 -104 13
-242 30 -305 38 -63 8 -218 28 -345 45 -126 17 -273 35 -325 40 -52 5 -162 18
-245 29 -166 22 -425 54 -850 107 -154 19 -325 41 -380 49 -55 8 -129 17 -165
20 -36 4 -148 18 -250 31 -166 22 -296 39 -700 89 -69 9 -172 22 -230 30 -58
8 -197 26 -310 40 -113 13 -297 36 -410 49 -113 14 -266 32 -340 41 -74 9
-182 22 -240 30 -58 8 -179 24 -270 35 -91 12 -230 30 -310 40 -299 40 -908
115 -1120 140 -41 5 -127 15 -190 24 -63 8 -135 17 -160 20 -103 12 -229 27
-290 36 -36 5 -146 19 -245 30 -99 12 -223 28 -275 36 -52 8 -135 19 -183 24
-49 6 -98 12 -110 15 -12 3 -119 16 -237 30 -118 13 -278 33 -355 44 -77 11
-173 23 -212 27 l-73 7 -1 583 c-1 321 -2 590 -3 597 -3 20 5 28 22 23 10 -2
44 -7 77 -11z m15579 -132 c90 -258 88 -500 -9 -973 l-44 -215 1 655 c0 712
-2 687 52 533z m-143 -760 c0 -148 2 -370 5 -494 4 -178 2 -238 -9 -285 -21
-82 -113 -437 -132 -504 -20 -72 -108 -431 -134 -545 -26 -113 -104 -544 -125
-690 -16 -109 -46 -374 -46 -407 0 -15 -9 -18 -44 -18 -55 0 -70 -14 -86 -80
-10 -44 -10 -53 3 -63 13 -11 13 -21 -2 -92 l-16 -80 -75 4 c-41 2 -83 5 -92
6 -9 2 -33 -1 -53 -6 -56 -16 -69 -57 -99 -319 -15 -124 -31 -250 -36 -280 -5
-30 -12 -80 -15 -110 -3 -30 -12 -100 -21 -156 -15 -93 -15 -104 0 -132 22
-43 53 -56 181 -76 61 -10 134 -22 164 -28 l53 -10 -6 -61 c-34 -340 -33 -708
5 -1022 32 -268 106 -577 184 -773 23 -57 30 -84 22 -87 -66 -20 -145 -53
-205 -86 -41 -21 -81 -39 -90 -39 -9 0 -66 7 -126 17 l-109 16 -83 83 c-45 45
-108 100 -140 121 -33 21 -61 41 -64 45 -3 4 -37 21 -74 38 -198 90 -467 104
-678 35 -116 -38 -154 -57 -268 -132 -115 -77 -316 -266 -413 -390 -177 -225
-376 -587 -494 -898 -37 -99 -100 -283 -113 -330 -120 -445 -182 -769 -212
-1105 -19 -215 -16 -788 5 -965 18 -152 62 -409 88 -515 106 -432 283 -785
511 -1021 128 -132 269 -217 429 -260 69 -19 111 -23 234 -23 135 0 159 2 245
28 52 15 139 50 192 78 l97 51 124 -21 125 -21 57 -60 c320 -336 759 -384
1140 -125 44 30 95 66 113 80 l32 27 -1 -255 -2 -254 -136 -71 c-75 -39 -158
-80 -186 -91 -27 -11 -84 -36 -125 -55 -41 -19 -106 -49 -145 -65 -147 -64
-294 -139 -287 -147 4 -5 2 -5 -5 -2 -10 6 -67 -17 -234 -96 -31 -15 -59 -27
-62 -27 -3 0 -47 -20 -99 -44 -134 -63 -488 -226 -728 -336 -63 -29 -146 -67
-185 -85 -108 -51 -301 -139 -645 -295 -173 -78 -493 -225 -710 -325 -459
-212 -509 -235 -514 -235 -3 0 -51 -22 -108 -48 -56 -27 -170 -79 -253 -116
-172 -78 -159 -72 -373 -170 -89 -41 -171 -78 -182 -81 -20 -6 -20 -6 -20
6502 l0 6508 53 18 c169 61 236 84 462 162 138 47 297 101 355 120 58 18 258
86 445 150 589 203 977 336 1065 365 47 16 130 45 185 65 55 21 141 50 190 65
50 16 135 45 190 65 55 19 199 69 320 110 677 229 1045 354 1070 365 36 15
157 58 350 123 105 36 226 79 270 95 44 17 83 31 88 31 4 1 7 -119 8 -266z
m-5132 -821 l2 -569 -133 -21 c-113 -18 -469 -58 -670 -76 l-58 -5 -1 167 c-2
143 -1 452 1 913 l0 116 108 6 c59 4 222 13 362 22 292 17 372 21 381 18 4 -2
7 -259 8 -571z m-10501 470 l30 -37 6 -625 c4 -344 11 -1221 16 -1950 5 -729
12 -1512 15 -1740 3 -228 7 -845 10 -1370 3 -525 7 -1290 10 -1700 3 -410 7
-1103 10 -1540 3 -437 7 -1033 10 -1325 13 -1335 16 -2225 7 -2225 -5 0 -18
21 -27 48 -19 51 -20 91 -39 2342 -4 437 -9 903 -11 1035 -5 288 -12 1035 -25
2825 -5 734 -14 1801 -20 2370 -5 569 -12 1269 -15 1555 -3 286 -8 921 -11
1410 -3 490 -7 907 -9 928 -2 20 0 37 5 37 5 0 22 -17 38 -38z m347 -78 c116
-14 213 -29 216 -32 4 -4 10 -416 13 -917 3 -500 8 -1088 11 -1305 3 -217 7
-917 10 -1555 3 -638 7 -1425 10 -1750 3 -324 7 -922 10 -1327 3 -406 7 -1070
10 -1475 3 -406 8 -1051 11 -1433 l5 -695 28 -26 c30 -28 37 -29 285 -70 70
-11 133 -22 140 -24 6 -2 36 -6 66 -9 67 -7 456 -69 600 -96 58 -10 179 -31
270 -45 353 -55 477 -75 530 -85 63 -12 447 -77 533 -91 31 -5 83 -13 115 -18
31 -5 68 -12 82 -15 14 -3 46 -8 72 -11 26 -3 113 -17 195 -31 186 -33 266
-46 563 -92 69 -11 193 -32 275 -46 83 -14 249 -42 370 -62 121 -20 270 -44
330 -54 61 -10 142 -23 180 -29 543 -88 706 -114 850 -136 94 -15 258 -42 365
-60 107 -18 294 -50 415 -69 121 -20 272 -45 335 -56 63 -11 203 -34 310 -51
107 -17 215 -34 240 -39 25 -4 160 -26 300 -49 140 -22 296 -48 345 -56 50 -8
104 -17 120 -19 42 -6 436 -72 575 -96 141 -24 142 -24 169 -2 l22 17 -1 1595
c0 877 -2 1854 -4 2170 -3 421 -8 5662 -6 6904 l0 119 53 -8 c28 -3 87 -10
130 -15 43 -4 81 -10 84 -14 4 -3 8 -2931 11 -6506 l4 -6501 -53 6 c-68 8
-307 49 -469 80 -69 13 -165 29 -215 36 -49 7 -91 13 -93 14 -2 2 13 54 33
116 20 63 52 161 70 219 38 118 83 268 115 380 12 41 48 161 80 265 104 338
142 487 137 531 -8 75 -60 163 -146 249 -44 44 -92 92 -108 106 -15 14 -40 39
-55 57 -32 37 -58 45 -253 77 -82 14 -253 43 -380 65 -126 22 -291 49 -365 61
-74 11 -211 34 -305 49 -93 16 -213 36 -265 45 -52 8 -133 22 -180 30 -47 8
-161 26 -255 40 -93 14 -197 30 -230 36 -33 5 -89 13 -125 18 -36 6 -135 21
-220 35 -367 60 -366 60 -417 49 -65 -15 -259 -144 -303 -201 -34 -44 -36 -52
-155 -442 -86 -286 -99 -325 -105 -333 -4 -4 -40 -1 -81 7 -116 22 -234 42
-509 86 -140 22 -271 45 -290 50 -19 5 -64 12 -100 15 l-65 7 -110 -111 c-60
-61 -113 -111 -118 -111 -5 0 -15 -6 -22 -14 -11 -11 -25 -11 -87 1 -40 7
-116 20 -168 28 -52 8 -169 28 -260 44 -546 96 -646 113 -1040 181 -124 22
-281 49 -349 61 -127 22 -140 20 -141 -18 0 -14 -9 -12 350 -73 278 -47 426
-73 685 -120 61 -11 180 -31 265 -45 179 -29 339 -56 530 -92 218 -40 211 -40
256 -2 21 18 80 73 130 121 72 69 97 88 120 88 39 0 960 -151 974 -160 11 -7
-2 -55 -140 -500 -27 -85 -51 -172 -55 -194 -9 -46 14 -46 -295 8 -113 20
-284 50 -380 66 -96 17 -213 37 -260 46 -47 8 -123 22 -170 30 -47 8 -141 26
-210 40 -69 14 -269 49 -445 79 -176 30 -410 70 -520 90 -110 20 -240 42 -290
50 -49 8 -182 30 -295 50 -113 20 -256 44 -318 55 -63 11 -173 31 -245 44
-243 46 -361 67 -512 92 -135 21 -395 66 -807 139 -81 14 -154 28 -162 31 -7
3 -16 18 -20 35 -3 16 -6 467 -8 1001 -1 535 -5 1315 -9 1733 -3 418 -10 1370
-14 2115 -4 745 -9 1358 -11 1361 -2 4 -5 328 -6 720 -1 393 -5 1004 -8 1359
-13 1217 -20 2006 -25 2970 -3 531 -8 1029 -11 1107 l-6 143 28 -5 c16 -3 124
-17 239 -31z m440 -54 c83 -11 209 -27 280 -35 72 -9 182 -22 245 -31 152 -20
154 -20 390 -49 214 -26 342 -42 600 -76 85 -11 198 -24 250 -30 52 -5 109
-11 125 -13 68 -10 672 -87 825 -106 91 -11 271 -34 400 -50 558 -72 632 -81
770 -95 80 -9 170 -20 200 -25 30 -5 93 -14 140 -19 47 -6 119 -15 160 -20 41
-5 102 -13 135 -16 33 -4 125 -15 205 -26 80 -10 357 -45 615 -78 259 -33 522
-67 585 -76 63 -8 192 -24 285 -35 94 -11 222 -27 285 -35 176 -24 499 -65
714 -90 71 -9 132 -17 135 -19 3 -2 59 -9 125 -16 65 -6 128 -13 139 -16 24
-4 246 -34 312 -41 121 -12 315 -36 422 -50 l122 -16 3 -261 c2 -144 4 -1519
6 -3056 1 -1537 5 -3843 8 -5124 l7 -2329 -44 6 c-24 3 -125 19 -224 36 -214
36 -927 153 -1285 211 -411 66 -618 100 -735 120 -121 22 -999 165 -1445 236
-157 25 -305 49 -330 55 -25 5 -92 16 -150 24 -154 23 -1627 266 -1815 300
-44 8 -165 28 -270 45 -104 16 -271 44 -370 60 -269 45 -841 138 -915 149 -36
6 -146 24 -245 41 -99 17 -223 38 -275 46 -52 8 -147 23 -210 33 -63 11 -141
22 -172 26 -107 12 -97 -60 -103 730 -3 380 -7 1106 -10 1615 -3 509 -7 1233
-10 1610 -9 1143 -24 3661 -30 4980 -3 685 -8 1309 -11 1388 -3 78 -2 142 3
142 4 0 76 -9 158 -20z m9709 -7518 l-6 -6507 -26 -20 c-14 -10 -33 -20 -41
-21 -51 -6 -774 -52 -777 -50 -1 1 -4 2927 -7 6503 l-5 6502 31 6 c18 3 77 9
132 14 136 12 612 70 655 80 19 4 38 6 42 4 4 -2 5 -2932 2 -6511z m5131 5526
c-4 -475 -8 -864 -9 -865 -1 -2 -51 8 -115 23 -23 5 -24 7 -17 81 3 46 11 80
20 87 18 14 30 110 17 134 -6 12 -31 23 -65 31 -39 9 -56 17 -56 28 0 84 125
874 165 1048 24 103 40 187 51 263 3 17 8 32 11 32 3 0 3 -388 -2 -862z m-237
-775 c-10 -2 -26 -2 -35 0 -10 3 -2 5 17 5 19 0 27 -2 18 -5z m-317 -73 c122
-9 460 -57 566 -80 45 -10 52 -15 58 -41 4 -16 4 -41 1 -56 -3 -16 -17 -116
-31 -223 -81 -643 -79 -628 -110 -636 -21 -5 -177 14 -415 52 -52 8 -160 23
-240 34 -178 24 -186 26 -194 45 -3 8 17 194 45 413 28 218 53 416 55 439 7
62 26 76 88 69 28 -3 108 -10 177 -16z m100 -1055 c3 -2 -1 -55 -8 -117 -18
-150 -20 -648 -4 -803 36 -354 119 -712 216 -931 25 -56 21 -64 -26 -64 -57 0
-197 461 -239 785 -34 269 -42 622 -19 948 l12 187 32 0 c17 0 34 -2 36 -5z
m442 -1906 c-5 -4 -43 -5 -85 -2 l-77 6 -17 41 c-77 186 -110 298 -158 536
-51 251 -67 393 -73 665 -5 216 8 575 23 631 5 20 8 20 89 8 171 -25 230 -27
263 -10 18 9 33 22 34 29 2 6 4 -418 5 -942 2 -525 0 -958 -4 -962z m-1814
177 c-2 -2 -44 -20 -94 -41 -147 -63 -255 -141 -409 -299 -248 -254 -457 -609
-633 -1075 -105 -280 -145 -422 -237 -846 -70 -322 -113 -832 -101 -1180 18
-537 79 -892 216 -1268 116 -317 341 -643 511 -740 21 -12 38 -25 38 -29 0 -4
-35 14 -77 40 -100 61 -263 225 -343 345 -103 154 -213 390 -278 597 -43 137
-106 432 -131 610 -42 303 -42 899 0 1215 18 137 40 276 59 370 10 50 24 119
30 155 43 226 179 665 264 853 8 18 29 66 47 107 30 71 76 162 157 310 79 144
229 355 332 466 172 187 327 298 535 384 57 24 131 41 114 26z m401 -12 c105
-13 259 -96 366 -197 75 -71 94 -70 -270 -20 -148 20 -325 14 -406 -15 -150
-53 -286 -139 -414 -262 -141 -135 -244 -262 -337 -415 -163 -265 -288 -549
-386 -875 -238 -794 -289 -1704 -132 -2378 25 -108 86 -314 110 -374 10 -27
28 -72 40 -100 35 -89 119 -249 172 -328 28 -41 88 -113 134 -161 45 -47 80
-89 76 -93 -4 -4 0 -4 10 0 9 3 17 2 17 -4 0 -6 51 -35 113 -66 93 -46 133
-60 237 -80 142 -27 265 -46 327 -49 24 -1 43 -5 43 -8 0 -8 -102 -54 -173
-78 -323 -112 -637 19 -900 374 -62 83 -187 316 -220 410 -8 22 -28 78 -45
125 -65 182 -116 424 -159 760 -23 172 -26 823 -5 1020 31 290 124 802 177
965 9 28 29 93 44 146 155 524 426 1040 692 1316 151 157 235 220 397 302 176
89 300 110 492 85z m1355 -225 c101 -14 199 -47 289 -99 79 -45 214 -170 283
-261 195 -255 343 -647 417 -1100 52 -316 60 -418 59 -774 0 -306 -8 -433 -43
-725 -23 -188 -94 -554 -126 -645 -7 -22 -14 -47 -14 -56 0 -52 -135 -449
-216 -639 -61 -143 -189 -390 -265 -512 -240 -386 -543 -651 -819 -718 -152
-36 -327 -24 -471 31 -321 124 -589 510 -748 1079 -104 376 -152 959 -117
1445 16 225 64 598 92 715 35 147 87 353 120 470 143 510 391 1008 665 1335
171 205 382 363 558 420 141 46 206 52 336 34z m-1195 -54 c138 -19 282 -41
401 -60 53 -8 108 -15 123 -15 34 0 33 -11 -2 -32 -72 -43 -280 -269 -397
-433 -110 -153 -289 -482 -372 -680 -87 -211 -205 -594 -266 -865 -115 -510
-157 -1107 -113 -1610 16 -175 44 -386 65 -475 5 -22 15 -67 21 -100 17 -86
94 -331 136 -433 51 -121 112 -241 178 -346 31 -48 56 -90 56 -92 0 -2 -6 -1
-12 1 -21 8 -173 34 -353 60 -367 54 -406 63 -500 114 -93 51 -130 79 -207
158 -148 152 -269 370 -362 655 -122 372 -166 680 -166 1163 0 876 224 1738
613 2355 226 359 506 590 788 650 56 12 233 5 369 -15z m-8230 -5705 c74 -11
171 -26 215 -34 44 -8 103 -17 130 -21 28 -3 84 -12 125 -20 41 -8 138 -24
215 -35 151 -23 330 -52 465 -75 47 -8 225 -37 395 -65 171 -27 337 -54 370
-60 33 -5 170 -28 305 -50 511 -85 476 -76 516 -138 70 -106 94 -160 94 -210
0 -54 -46 -233 -145 -557 -37 -121 -95 -317 -130 -435 -34 -118 -86 -291 -115
-385 -29 -93 -64 -208 -77 -255 -33 -117 -57 -148 -155 -209 -46 -29 -94 -61
-109 -72 -40 -31 -107 -27 -434 30 -165 28 -415 71 -555 96 -140 24 -316 54
-390 65 -74 12 -207 35 -295 51 -88 15 -315 53 -505 84 -190 31 -443 74 -564
95 -261 46 -265 48 -338 186 -57 106 -60 148 -24 251 14 37 41 122 61 188 20
66 46 149 57 185 11 36 38 124 59 195 20 72 54 182 75 245 20 63 49 158 64
210 16 52 37 122 48 155 33 101 98 307 113 359 16 57 38 81 138 150 139 97
167 109 226 100 17 -3 91 -14 165 -24z m9153 -462 c-43 -42 -258 -85 -384 -76
-42 3 -36 6 176 104 l220 100 3 -55 c2 -42 -1 -58 -15 -73z m-6253 -185 c19
-26 47 -59 61 -73 54 -53 62 -150 23 -280 -14 -47 -32 -110 -41 -140 -23 -89
-202 -670 -208 -681 -3 -4 -25 -76 -49 -160 -25 -85 -61 -206 -81 -269 -20
-63 -40 -131 -45 -150 -20 -77 -69 -201 -92 -230 -12 -17 -66 -56 -118 -88
-92 -55 -97 -57 -165 -57 -63 0 -175 17 -405 60 -41 8 -142 26 -225 40 -82 14
-184 33 -225 41 -41 8 -118 21 -170 29 -182 28 -276 44 -425 70 -82 15 -175
30 -205 35 -30 5 -174 29 -320 54 -146 25 -359 61 -475 80 -115 20 -255 43
-310 52 -88 15 -157 40 -205 74 -16 11 -16 11 135 -15 44 -8 271 -46 505 -84
234 -39 448 -75 475 -81 28 -5 136 -24 240 -41 232 -38 264 -44 340 -58 33 -6
141 -25 240 -42 99 -16 324 -54 501 -84 177 -30 337 -55 355 -55 44 1 94 24
199 93 131 85 147 102 180 192 17 44 87 269 156 500 69 231 142 472 161 535
19 63 38 129 43 145 4 17 33 118 65 225 65 221 79 324 51 378 -24 46 -6 38 34
-15z m-8550 -338 c41 -7 91 -16 110 -19 19 -2 116 -19 215 -36 99 -18 197 -34
218 -37 20 -3 37 -9 37 -14 0 -14 -70 -45 -140 -62 -186 -46 -467 -22 -547 47
-22 19 -27 33 -31 84 l-4 62 33 -6 c19 -3 68 -12 109 -19z m9840 -1621 c0 -40
-6 -64 -20 -84 -25 -35 -123 -75 -205 -84 -97 -11 -304 -9 -379 3 -57 10 -179
52 -196 68 -2 2 -7 31 -10 63 l-6 59 111 -5 c65 -3 208 3 350 14 132 11 266
20 298 21 l57 1 0 -56z"/>
<path d="M8300 18794 c-103 -12 -195 -28 -275 -49 -181 -47 -504 -134 -660
-178 -193 -54 -329 -91 -580 -157 -214 -56 -358 -95 -520 -139 -216 -59 -493
-133 -700 -188 -115 -30 -230 -61 -255 -68 -25 -7 -83 -23 -130 -36 -47 -12
-123 -33 -170 -46 -117 -34 -279 -77 -445 -119 -77 -19 -185 -48 -240 -64
-138 -39 -414 -116 -505 -139 -153 -39 -416 -112 -437 -121 -13 -5 -20 -16
-19 -27 4 -26 39 -22 216 26 85 23 205 55 265 71 61 16 135 35 165 44 425 117
946 257 1160 312 52 14 151 40 220 59 299 83 548 150 720 195 459 120 793 211
812 221 10 5 25 9 34 9 10 0 40 7 68 15 97 28 302 84 436 119 74 19 176 46
225 59 50 14 164 46 255 70 327 90 490 96 960 33 146 -19 344 -44 440 -56 96
-12 238 -30 315 -40 77 -10 266 -35 420 -54 154 -20 350 -46 435 -57 85 -11
232 -28 325 -39 94 -10 235 -28 315 -40 80 -11 377 -50 660 -86 283 -36 578
-74 655 -84 77 -10 232 -30 345 -44 113 -15 273 -35 355 -46 83 -11 188 -24
235 -30 47 -6 99 -12 115 -14 34 -5 207 -26 445 -56 247 -31 689 -87 825 -105
66 -9 152 -20 190 -25 39 -5 194 -24 345 -43 151 -19 302 -38 335 -42 83 -9
423 -54 462 -61 74 -14 67 -58 -12 -82 -83 -25 -919 -301 -940 -311 -11 -5
-157 -54 -325 -110 -168 -56 -487 -162 -710 -236 -223 -73 -666 -220 -985
-326 -786 -259 -828 -274 -840 -293 -15 -25 10 -36 54 -24 40 11 825 269 1051
346 80 27 190 64 245 82 55 17 109 35 120 40 21 8 672 222 690 226 10 3 277
93 1065 359 239 80 449 150 465 155 213 61 272 111 215 183 -32 40 -76 50
-415 92 -110 14 -212 27 -226 30 -14 3 -66 9 -115 15 -49 5 -138 16 -199 25
-60 8 -184 24 -275 35 -91 11 -181 23 -200 25 -85 11 -443 56 -525 65 -49 6
-229 28 -400 50 -170 22 -366 46 -435 55 -69 9 -244 32 -390 51 -319 42 -747
97 -965 124 -88 11 -207 26 -265 35 -58 8 -166 21 -240 30 -74 9 -238 30 -365
46 -376 48 -693 89 -810 104 -192 25 -736 95 -855 110 -63 8 -236 30 -385 49
-148 19 -328 42 -400 51 -131 16 -380 27 -445 19z"/>
<path d="M2604 16434 c2 -66 5 -167 5 -225 l1 -105 133 -17 c177 -23 167 -24
167 22 0 44 -1 44 -105 56 -116 14 -114 13 -113 48 0 62 2 64 66 56 112 -14
112 -14 112 31 0 44 4 43 -110 57 l-65 8 -2 48 c-1 36 2 47 11 44 7 -3 39 -8
72 -12 32 -3 73 -8 91 -11 30 -3 33 -1 39 32 3 19 3 39 -2 44 -5 4 -43 11 -84
15 -41 4 -78 9 -81 11 -4 2 -37 7 -73 10 l-68 7 6 -119z"/>
<path d="M2960 16285 l0 -223 28 -6 c27 -6 248 -36 264 -36 16 0 8 67 -9 82
-11 9 -49 18 -92 22 -40 4 -78 9 -85 12 -9 3 -12 53 -11 181 0 109 -4 177 -10
178 -5 2 -27 6 -47 9 l-38 5 0 -224z"/>
<path d="M3296 16415 c-8 -65 -7 -377 2 -391 6 -11 173 -39 267 -46 l40 -3 -3
39 c-1 22 -4 41 -5 43 -4 4 -88 18 -159 28 l-48 6 0 46 0 45 77 -7 c43 -3 82
-7 88 -8 12 -2 20 62 8 74 -4 4 -44 12 -87 18 -44 6 -81 13 -84 15 -2 3 -5 24
-5 48 -2 50 -4 49 98 31 113 -20 115 -19 115 26 0 22 -3 42 -7 44 -5 3 -37 8
-73 12 -36 4 -67 9 -71 10 -3 2 -37 7 -76 10 l-70 7 -7 -47z"/>
<path d="M3759 16401 c-46 -15 -76 -41 -103 -91 -66 -122 -12 -297 111 -359
49 -25 100 -27 148 -7 29 12 35 13 35 2 0 -15 21 -26 51 -26 18 0 19 8 19 125
0 143 13 128 -122 143 l-78 8 0 -37 c0 -40 11 -49 60 -49 48 0 61 -9 49 -33
-44 -86 -145 -71 -190 27 -31 67 -19 158 24 194 40 34 106 16 150 -39 24 -31
24 -31 61 -15 34 14 36 17 24 38 -50 89 -159 144 -239 119z"/>
<path d="M4174 16330 c-131 -65 -143 -272 -22 -387 64 -61 169 -84 234 -50 50
26 57 40 40 78 -8 19 -18 48 -21 64 l-7 30 -13 -32 c-26 -61 -117 -81 -168
-36 -31 28 -57 93 -57 147 0 42 5 53 35 83 32 32 39 35 76 29 81 -13 104 -41
154 -188 42 -123 72 -170 131 -207 56 -36 105 -46 152 -30 91 29 141 100 142
200 0 141 -83 245 -211 264 -38 6 -55 2 -97 -19 -28 -14 -52 -29 -55 -33 -2
-5 6 -31 17 -60 l22 -52 12 28 c25 56 110 69 163 24 87 -74 78 -219 -17 -259
-68 -29 -128 26 -169 154 -50 157 -88 212 -175 251 -57 26 -114 26 -166 1z"/>
<path d="M17245 15820 c-60 -21 -189 -65 -285 -99 -96 -34 -299 -104 -450
-156 -151 -52 -338 -117 -415 -145 -77 -29 -157 -57 -178 -62 -47 -13 -54 -24
-116 -178 -28 -68 -57 -130 -64 -138 -13 -13 -149 -62 -735 -268 -117 -41
-247 -88 -288 -105 -55 -21 -80 -27 -89 -19 -7 6 -38 52 -69 103 -31 50 -60
98 -65 105 -9 15 -19 12 -346 -104 -104 -37 -338 -118 -520 -179 -181 -62
-375 -130 -430 -150 -55 -20 -145 -53 -200 -73 -55 -19 -101 -36 -103 -37 -1
-1 1 -10 4 -19 5 -12 14 -16 28 -12 30 7 284 97 401 141 55 20 138 50 185 65
126 41 675 231 824 284 71 26 134 45 140 43 6 -3 31 -40 55 -83 53 -95 78
-124 106 -124 24 0 203 60 450 150 94 34 216 77 273 96 56 19 112 39 125 44
12 5 66 25 120 45 113 41 177 71 177 85 0 5 14 38 30 73 17 36 30 70 30 76 0
6 11 35 24 64 l24 54 118 46 c135 52 285 105 329 117 17 4 109 36 205 70 96
34 200 70 230 81 30 10 120 41 200 69 80 29 188 67 241 85 150 52 170 62 163
79 -8 20 1 22 -129 -24z"/>
<path d="M15684 15276 c-3 -9 -13 -16 -21 -16 -11 0 -13 -14 -11 -65 4 -79 22
-86 26 -10 4 69 22 73 22 5 0 -27 5 -50 10 -50 17 0 12 126 -5 140 -12 10 -16
9 -21 -4z"/>
<path d="M15488 15264 c-5 -4 -8 -49 -8 -101 0 -77 3 -95 16 -100 23 -9 48 10
52 38 5 36 19 44 26 15 14 -57 66 -10 66 59 0 83 -50 98 -72 21 -8 -30 -13
-36 -16 -21 -6 29 -21 45 -37 39 -9 -4 -15 4 -17 26 -2 18 -6 28 -10 24z m130
-78 c5 -25 -6 -66 -18 -66 -6 0 -10 21 -10 46 0 32 4 44 13 42 6 -3 14 -13 15
-22z m-86 -29 c6 -30 -9 -70 -22 -62 -18 11 -9 85 10 85 4 0 10 -11 12 -23z"/>
<path d="M15264 15158 c-20 -38 -22 -142 -3 -164 19 -24 51 -12 66 23 8 20 9
34 3 38 -6 3 -15 -6 -20 -20 -16 -42 -40 -15 -40 45 0 54 21 84 38 53 15 -26
27 -7 16 25 -14 39 -40 40 -60 0z"/>
<path d="M15430 15110 c0 -47 4 -80 10 -80 6 0 10 27 10 60 0 33 4 60 10 60 6
0 10 9 10 20 0 13 -7 20 -20 20 -18 0 -20 -7 -20 -80z"/>
<path d="M15360 15155 c-7 -9 -9 -22 -5 -32 8 -17 8 -17 12 0 3 9 9 17 14 17
15 0 10 -23 -11 -45 -42 -45 -31 -96 17 -79 27 9 28 12 25 69 -5 78 -24 104
-52 70z m26 -112 c-11 -11 -19 6 -11 24 8 17 8 17 12 0 3 -10 2 -21 -1 -24z"/>
<path d="M15170 15136 c0 -14 5 -26 10 -26 6 0 10 9 10 19 0 11 -4 23 -10 26
-6 4 -10 -5 -10 -19z"/>
<path d="M15169 15073 c0 -11 -3 -13 -6 -5 -6 16 -18 15 -35 -1 -9 -9 -12 -34
-10 -80 4 -80 22 -90 22 -13 0 35 5 58 15 66 13 11 15 5 15 -44 0 -31 5 -56
10 -56 6 0 10 32 10 75 0 43 -4 75 -10 75 -5 0 -10 -8 -11 -17z"/>
<path d="M15080 15011 c0 -27 -3 -56 -6 -65 -13 -33 -24 -14 -24 40 0 39 -4
54 -12 52 -14 -5 -12 -86 2 -124 9 -22 10 -22 40 -7 21 10 29 20 26 30 -3 8
-6 39 -6 69 0 30 -4 54 -10 54 -5 0 -10 -22 -10 -49z"/>
<path d="M14897 15003 c-3 -15 -1 -35 4 -45 5 -9 9 -37 9 -62 0 -32 4 -46 13
-46 20 0 28 11 18 24 -13 17 -23 96 -11 96 5 0 10 7 10 15 0 8 -4 15 -10 15
-5 0 -10 7 -10 15 0 26 -17 16 -23 -12z"/>
<path d="M14965 15006 c-14 -20 -15 -30 -6 -39 8 -8 11 -7 11 6 0 9 5 17 10
17 17 0 11 -25 -10 -38 -12 -7 -20 -23 -20 -40 0 -39 15 -52 45 -39 21 11 22
16 18 72 -7 77 -24 98 -48 61z m21 -103 c-11 -11 -19 6 -11 24 8 17 8 17 12 0
3 -10 2 -21 -1 -24z"/>
<path d="M14843 14973 c-29 -6 -32 -19 -26 -92 7 -78 23 -79 23 -1 0 76 16 78
26 4 10 -81 28 -53 19 30 -4 36 -10 65 -14 65 -3 -1 -16 -4 -28 -6z"/>
<path d="M14656 14948 c-33 -51 -29 -160 6 -182 23 -14 58 18 58 53 l0 26 -20
-25 c-17 -21 -21 -23 -30 -10 -12 19 -13 90 -1 109 8 12 12 12 25 2 13 -11 17
-11 22 3 17 44 -34 64 -60 24z"/>
<path d="M14749 14933 c-17 -19 -18 -118 -2 -134 16 -16 53 6 53 31 0 23 -10
26 -28 8 -9 -9 -12 -8 -12 4 0 9 9 20 20 23 13 4 20 15 20 30 0 53 -24 71 -51
38z m23 -45 c-9 -9 -12 -7 -12 12 0 19 3 21 12 12 9 -9 9 -15 0 -24z"/>
<path d="M13016 9138 c-31 -28 -121 -184 -135 -233 -5 -19 -7 -44 -4 -55 4
-17 17 0 61 77 100 179 122 218 122 226 0 14 -19 7 -44 -15z"/>
<path d="M12884 9116 c-3 -8 -4 -31 -2 -52 l3 -39 28 53 27 52 -25 0 c-14 0
-28 -6 -31 -14z"/>
<path d="M13014 8965 c-91 -155 -144 -263 -144 -293 0 -61 5 -54 122 160 57
105 69 133 66 165 l-3 38 -41 -70z"/>
<path d="M13010 8763 c-24 -43 -65 -115 -90 -159 -38 -66 -45 -89 -42 -118 4
-35 5 -36 18 -17 8 11 48 83 89 160 66 124 98 211 76 211 -4 0 -27 -35 -51
-77z"/>
<path d="M12965 8498 c-65 -116 -86 -162 -87 -191 0 -21 2 -40 5 -43 4 -4 106
174 158 276 22 43 32 97 20 105 -5 3 -49 -63 -96 -147z"/>
<path d="M12967 8311 c-82 -148 -117 -241 -90 -241 18 0 183 315 188 359 2 22
1 41 -3 41 -4 0 -47 -72 -95 -159z"/>
<path d="M13010 8197 c-59 -106 -79 -142 -112 -199 -26 -44 -39 -118 -20 -118
7 0 95 148 155 262 30 57 41 102 30 122 -6 11 -20 -7 -53 -67z"/>
<path d="M13007 7987 c-26 -51 -47 -95 -47 -99 0 -11 34 4 47 21 30 38 54 102
51 135 -3 34 -5 32 -51 -57z"/>
<path d="M12930 7668 c-39 -27 -70 -82 -77 -137 -6 -45 13 -111 32 -111 17 0
26 39 14 61 -22 43 -2 99 45 124 26 14 37 15 54 6 26 -14 40 -74 22 -96 -10
-12 -10 -18 0 -30 18 -21 28 -8 39 49 10 56 0 102 -29 134 -26 28 -58 28 -100
0z"/>
<path d="M12940 7391 l-85 -28 -1 -36 c-2 -43 -4 -41 41 -23 34 15 35 14 35
-7 0 -13 -16 -40 -36 -61 -23 -24 -38 -52 -41 -72 -6 -43 7 -43 46 1 30 34 32
35 55 19 59 -38 106 33 106 159 0 91 5 89 -120 48z m70 -130 c-16 -30 -38 -15
-42 30 -3 34 -1 40 22 47 23 8 25 6 28 -24 2 -18 -2 -42 -8 -53z"/>
<path d="M12945 7107 l-90 -32 -1 -93 c-2 -90 -1 -93 19 -90 20 3 22 10 25 68
3 58 12 79 35 80 4 0 7 -22 7 -50 0 -43 3 -50 20 -50 16 0 19 8 22 57 2 46 7
59 21 61 15 3 17 -5 17 -58 0 -53 2 -61 18 -58 14 3 17 17 20 101 2 74 0 97
-10 96 -7 0 -53 -15 -103 -32z"/>
<path d="M12852 6830 c-2 -24 2 -31 23 -36 22 -5 25 -11 25 -53 0 -38 -5 -52
-25 -71 -16 -15 -25 -34 -25 -53 l0 -29 38 27 c20 16 67 53 105 83 61 49 67
58 67 92 l0 37 -84 16 c-117 23 -121 23 -124 -13z m140 -50 c17 0 16 -3 -10
-25 -38 -32 -42 -31 -42 6 0 24 3 30 16 25 9 -3 25 -6 36 -6z"/>
<path d="M13018 6643 l-3 -48 -74 -26 c-78 -27 -108 -56 -83 -81 9 -9 27 -7
76 10 35 12 69 22 75 22 6 0 11 -16 11 -36 0 -28 3 -35 18 -32 15 3 17 18 20
121 2 111 2 117 -17 117 -17 0 -20 -8 -23 -47z"/>
<path d="M12938 6378 l-88 -30 0 -94 c0 -87 1 -94 20 -94 18 0 20 7 20 70 0
39 4 70 9 70 5 0 16 3 25 6 13 5 16 -3 16 -46 0 -44 3 -51 18 -48 13 2 18 15
20 58 3 49 13 69 35 70 4 0 7 -29 7 -65 0 -63 1 -65 20 -55 18 9 20 21 20 100
0 106 7 103 -122 58z"/>
<path d="M13033 6073 c-7 -2 -13 -22 -13 -43 l0 -38 -85 -33 c-47 -17 -85 -34
-86 -38 -8 -61 -10 -60 91 -26 40 14 75 25 77 25 2 0 3 -18 3 -41 0 -33 3 -40
18 -37 15 3 17 18 20 121 1 64 -1 117 -5 116 -4 0 -14 -3 -20 -6z"/>
<path d="M12955 5769 c-44 -15 -83 -30 -87 -31 -4 -2 -10 -18 -12 -37 -3 -31
-2 -33 23 -28 14 3 34 9 44 12 15 6 17 0 17 -47 l0 -55 -40 -12 c-22 -6 -41
-17 -41 -24 -1 -7 -3 -22 -4 -34 -3 -30 11 -29 115 10 82 31 85 34 88 66 3 31
2 33 -21 27 -14 -3 -32 -9 -41 -12 -13 -5 -16 3 -16 51 l0 57 40 15 c34 14 40
21 40 45 0 34 -4 34 -105 -3z"/>
<path d="M12955 5449 c-49 -17 -92 -32 -94 -35 -9 -8 -10 -194 -2 -194 34 0
41 14 41 75 0 59 8 75 36 75 2 0 4 -22 4 -49 0 -44 2 -49 20 -44 16 4 20 15
22 61 2 45 7 58 21 60 15 3 17 -5 17 -56 0 -55 2 -60 20 -55 18 5 20 14 20 99
0 52 -3 94 -7 94 -5 0 -48 -14 -98 -31z"/>
<path d="M13003 5110 c-22 -10 -66 -26 -97 -36 -53 -17 -56 -19 -56 -50 l0
-33 40 14 40 14 0 -49 c0 -43 3 -50 20 -50 16 0 19 8 22 58 3 50 6 57 26 60
21 3 22 0 22 -56 0 -55 2 -60 20 -55 18 5 20 14 20 104 0 55 -3 99 -7 98 -5 0
-27 -9 -50 -19z"/>
<path d="M12982 4856 c-35 -13 -72 -32 -84 -42 -51 -46 -66 -166 -25 -204 25
-25 52 -22 135 12 45 19 52 25 52 50 0 34 1 34 -76 6 -33 -12 -68 -19 -77 -15
-23 9 -22 62 2 86 17 17 119 61 141 61 6 0 10 16 10 35 0 19 -3 35 -7 34 -5 0
-36 -11 -71 -23z"/>
<path d="M13018 4533 l-3 -47 -80 -31 c-78 -30 -80 -32 -83 -68 l-3 -36 81 29
c44 17 83 30 85 30 3 0 5 -18 5 -39 0 -34 3 -38 20 -34 19 5 20 14 20 124 0
111 -1 119 -19 119 -17 0 -20 -8 -23 -47z"/>
<path d="M12995 4273 c-115 -49 -145 -85 -145 -176 0 -43 5 -58 23 -75 21 -20
25 -21 72 -8 101 29 115 37 115 73 l0 32 -70 -26 c-57 -21 -72 -23 -85 -13
-39 33 0 88 86 120 64 24 72 33 67 73 l-3 25 -60 -25z"/>
<path d="M12950 3941 c-92 -35 -95 -38 -98 -70 -3 -31 -1 -33 20 -29 13 3 31
9 41 13 31 13 19 -26 -23 -76 -32 -38 -40 -56 -40 -86 1 -32 3 -35 13 -22 49
64 69 82 77 70 4 -8 20 -15 34 -16 20 -3 33 5 54 33 24 32 27 45 30 129 2 51
0 93 -5 92 -4 -1 -51 -18 -103 -38z m70 -79 c0 -37 -29 -80 -41 -61 -13 21
-11 77 4 82 27 12 37 6 37 -21z"/>
<path d="M12940 3646 l-85 -33 -3 -97 c-2 -89 -1 -97 15 -94 15 3 19 15 21 69
3 59 5 67 27 77 25 11 25 11 25 -38 0 -43 3 -50 20 -50 16 0 19 8 22 57 2 46
7 59 21 61 15 3 17 -5 17 -56 0 -55 2 -60 20 -55 18 5 20 14 20 99 0 111 5
108 -120 60z"/>
<path d="M6580 2961 l0 -109 28 -10 c29 -12 304 -60 362 -64 20 -1 41 2 48 6
14 8 17 193 3 214 -5 9 -58 21 -137 33 -71 10 -153 23 -183 29 -29 5 -69 10
-87 10 l-34 0 0 -109z m145 40 c33 -6 104 -18 158 -27 l97 -16 0 -51 c0 -29
-4 -57 -8 -64 -6 -9 -48 -5 -172 16 l-165 27 -3 66 c-3 59 -1 66 15 63 10 -2
45 -8 78 -14z"/>
<path d="M3110 15112 c-24 -12 -44 -36 -63 -73 l-29 -54 6 -745 c3 -410 8
-911 11 -1115 3 -203 7 -908 10 -1565 5 -1141 17 -3031 31 -4975 l6 -900 24
-41 c14 -23 41 -53 62 -68 41 -28 77 -35 647 -126 143 -22 294 -47 335 -55 41
-8 120 -21 175 -30 55 -8 197 -31 315 -51 118 -19 260 -42 315 -50 55 -8 195
-30 310 -49 116 -19 390 -64 610 -100 220 -36 423 -70 450 -75 28 -6 151 -26
275 -45 124 -20 293 -47 375 -60 83 -13 209 -34 280 -45 72 -11 168 -27 215
-35 47 -9 112 -20 145 -25 163 -24 914 -147 1075 -175 86 -15 356 -59 710
-115 107 -17 231 -37 275 -46 44 -8 141 -23 215 -34 165 -25 536 -85 645 -104
225 -40 229 -41 276 -15 26 14 53 41 67 64 l23 40 -6 1840 c-3 1012 -9 1850
-12 1862 -4 18 0 23 21 29 14 3 38 20 52 37 l26 31 -3 1024 -4 1024 -28 24
c-15 13 -37 24 -48 24 -19 0 -19 14 -20 733 -1 402 -4 1236 -8 1852 l-6 1120
-25 47 c-42 78 -90 97 -321 123 -205 23 -272 31 -569 70 -151 20 -327 42 -390
50 -63 7 -207 25 -320 40 -113 14 -333 41 -490 61 -157 19 -352 43 -435 54
-82 10 -211 26 -285 35 -74 8 -182 22 -240 30 -58 8 -235 31 -395 50 -159 19
-324 40 -365 46 -92 12 -570 73 -1105 139 -132 16 -310 39 -395 50 -339 43
-914 113 -1065 131 -88 10 -207 25 -265 33 -224 31 -422 57 -580 76 -91 10
-214 26 -274 35 -142 20 -194 19 -236 -3z m265 -62 c83 -10 215 -28 295 -39
80 -11 224 -29 320 -40 96 -11 279 -34 405 -51 127 -17 283 -37 348 -45 65 -8
122 -17 128 -20 5 -4 9 -28 9 -54 l0 -48 -57 -21 c-55 -20 -132 -44 -573 -182
-264 -83 -350 -110 -520 -165 -180 -58 -284 -91 -375 -117 -76 -22 -95 -33
-95 -55 0 -36 17 -32 390 87 102 32 259 82 350 110 91 28 197 62 235 75 39 13
131 42 205 65 74 23 210 66 302 95 l167 54 203 -25 c198 -25 859 -114 988
-134 36 -5 164 -21 285 -35 121 -15 261 -32 310 -40 50 -8 167 -24 260 -35 94
-11 199 -24 235 -30 36 -5 119 -16 185 -24 66 -9 201 -27 300 -40 99 -14 205
-28 236 -31 l56 -7 6 -331 c3 -183 7 -1241 8 -2352 0 -1111 2 -2346 3 -2745
l1 -725 -63 -21 c-35 -12 -73 -26 -85 -33 -12 -6 -134 -53 -272 -105 -137 -52
-358 -136 -490 -186 -132 -50 -269 -103 -305 -116 -108 -41 -248 -93 -375
-139 -66 -23 -163 -59 -215 -80 -52 -20 -140 -54 -195 -76 -55 -21 -136 -52
-180 -70 -44 -17 -116 -44 -160 -60 -44 -16 -89 -34 -100 -39 -11 -5 -58 -23
-105 -39 -47 -16 -164 -59 -260 -96 -96 -37 -245 -93 -330 -125 -330 -122
-566 -211 -585 -220 -11 -6 -67 -27 -125 -49 -58 -21 -126 -49 -152 -60 l-48
-22 0 -269 c0 -246 1 -270 18 -279 9 -5 59 -14 111 -21 91 -13 93 -14 60 -25
-19 -7 -72 -27 -119 -45 -47 -18 -127 -48 -179 -66 -52 -19 -113 -42 -135 -53
-23 -10 -72 -30 -111 -44 -38 -15 -100 -38 -136 -52 -36 -14 -71 -25 -77 -25
-7 0 -21 -5 -32 -12 -10 -7 -22 -9 -25 -6 -7 7 -8 125 -24 2448 -18 2573 -25
3806 -26 4123 l0 308 60 24 c33 14 65 25 72 25 6 0 19 10 27 22 13 18 16 55
16 190 l0 167 -27 14 c-33 17 -221 50 -234 41 -5 -3 -9 -14 -9 -24 0 -21 6
-23 115 -43 l70 -12 -125 -38 c-69 -20 -128 -37 -131 -37 -7 0 -19 930 -20
1591 -1 527 -2 521 63 552 18 9 44 14 58 11 14 -2 93 -13 175 -24z m1715 -216
c19 -2 73 -8 120 -14 90 -10 750 -92 885 -109 44 -6 226 -29 405 -51 179 -22
341 -43 360 -46 19 -2 143 -18 275 -34 132 -16 326 -40 430 -54 105 -13 238
-30 296 -37 l106 -12 6 -55 c3 -31 4 -58 2 -60 -3 -4 -163 12 -230 23 -16 3
-122 16 -235 30 -113 14 -250 32 -305 40 -128 19 -415 56 -770 100 -154 20
-329 42 -390 50 -174 24 -454 62 -790 106 -170 22 -310 41 -311 42 -1 1 -4 24
-7 51 l-4 48 61 -7 c34 -3 77 -8 96 -11z m3068 -383 c37 -6 148 -19 247 -31
99 -11 234 -28 300 -36 66 -8 172 -21 235 -29 63 -8 169 -21 235 -29 66 -9
143 -18 170 -21 28 -3 73 -10 100 -15 28 -5 82 -11 120 -15 39 -3 117 -12 175
-20 58 -8 179 -24 270 -35 91 -11 197 -25 235 -30 39 -6 162 -22 274 -35 131
-16 212 -30 227 -40 13 -8 32 -32 42 -53 17 -33 20 -73 26 -417 3 -209 6
-1044 6 -1855 l0 -1475 -25 -3 c-15 -2 -47 4 -72 12 -67 23 -143 19 -265 -13
-124 -33 -159 -55 -252 -161 -48 -54 -65 -82 -70 -113 -4 -22 -4 -380 0 -796
8 -838 3 -783 74 -865 17 -18 30 -37 30 -41 0 -4 23 -36 50 -70 62 -78 103
-99 235 -121 95 -15 270 -15 295 1 6 4 10 -45 10 -129 0 -75 -3 -136 -7 -136
-12 0 -494 69 -531 76 -27 5 -47 25 -115 113 -46 58 -97 127 -115 153 l-32 47
2 1141 3 1141 100 96 c55 54 149 145 209 203 60 58 122 125 138 150 l28 44 0
1453 c0 799 -3 1460 -6 1468 -4 8 -15 15 -25 15 -19 0 -19 -34 -19 -1463 l0
-1464 -28 -39 c-16 -21 -118 -124 -226 -229 -109 -104 -204 -202 -212 -217
-12 -23 -14 -208 -14 -1176 l0 -1148 101 -133 c55 -73 98 -135 96 -137 -2 -3
-24 0 -48 5 -24 5 -109 19 -189 30 -80 11 -237 35 -350 52 -113 17 -230 35
-260 39 -93 14 -471 70 -540 81 -36 5 -110 14 -165 20 -55 6 -103 14 -106 18
-7 6 -14 1073 -26 3514 l-6 1377 27 0 c15 0 55 13 90 29 101 48 108 48 131 5
41 -78 42 -78 264 -103 l202 -23 72 37 c106 55 210 117 224 135 13 16 18 360
7 458 -6 46 -9 52 -30 52 l-24 0 -2 -242 -3 -243 -104 -59 c-92 -53 -105 -58
-115 -44 -7 9 -37 82 -67 162 -45 120 -58 147 -79 156 -27 10 -561 88 -800
115 -80 9 -167 21 -195 26 l-50 9 0 440 0 440 28 0 c16 0 58 -4 95 -9z m22
-946 c63 -8 147 -19 185 -24 39 -5 124 -17 190 -25 66 -9 183 -25 260 -36 77
-11 158 -22 180 -25 22 -3 46 -9 53 -14 8 -5 40 -73 72 -152 l59 -144 -30 -3
c-16 -2 -94 6 -174 17 -80 12 -150 21 -155 21 -5 0 -21 22 -35 49 -25 46 -57
71 -90 71 -8 0 -52 -17 -98 -38 -53 -25 -93 -37 -112 -35 -94 11 -291 45 -297
51 -13 13 -137 302 -130 302 4 0 59 -7 122 -15z m-62 -266 c36 -78 41 -81 199
-105 l112 -17 3 -216 c2 -119 5 -583 6 -1031 4 -1796 13 -3450 17 -3542 3 -66
2 -98 -6 -98 -5 0 -52 5 -102 11 l-92 10 -100 -40 -100 -40 -6 272 c-3 150 -7
774 -8 1387 0 613 -3 1673 -6 2355 l-5 1240 29 -60 c15 -33 42 -90 59 -126z
m-4728 -419 l0 -120 -37 -16 c-21 -9 -89 -33 -150 -53 l-113 -38 0 132 0 131
133 41 c72 23 140 42 150 42 15 1 17 -11 17 -119z m-171 -1995 c6 -962 13
-1914 16 -2115 2 -201 7 -970 11 -1710 4 -778 10 -1350 15 -1356 9 -11 100 10
154 36 29 14 127 51 145 55 8 2 63 24 122 49 59 25 136 54 170 65 59 19 111
39 319 124 l85 34 115 -18 c63 -10 173 -28 244 -39 72 -11 157 -25 190 -30
125 -20 281 -42 303 -42 31 -1 30 -1 -68 -39 -162 -62 -171 -75 -172 -250 l0
-112 37 -34 c21 -19 43 -32 50 -29 7 2 28 33 46 67 27 50 41 66 76 81 42 19
45 18 149 -7 6 -2 9 -16 6 -34 -6 -41 -36 -42 -57 -1 -9 17 -20 28 -25 25 -18
-11 -11 -68 12 -92 41 -44 86 -22 104 50 6 26 10 28 38 23 17 -4 59 -12 94
-19 l62 -12 -2 -60 c-3 -56 -2 -60 20 -63 13 -2 69 15 125 37 l102 41 79 -20
c106 -27 141 -26 171 5 14 13 25 35 25 48 0 19 7 26 28 31 41 11 174 62 283
111 l97 44 99 -15 c54 -8 139 -21 188 -29 300 -46 298 -46 325 -79 44 -54 91
-96 132 -117 60 -31 50 -55 -37 -89 -38 -15 -79 -31 -90 -35 -11 -5 -22 -9
-25 -10 -29 -9 -167 -81 -172 -89 -17 -26 13 -41 119 -58 59 -9 203 -33 318
-54 252 -45 324 -49 351 -17 28 33 418 212 485 224 31 5 91 23 134 40 l77 31
171 -27 c95 -14 239 -37 320 -51 82 -13 181 -29 220 -35 322 -47 404 -60 487
-74 52 -9 95 -17 97 -18 1 -2 -50 -27 -115 -57 -408 -188 -411 -189 -430 -218
-21 -32 -30 -171 -11 -183 28 -18 38 -9 45 41 6 48 8 51 33 46 28 -6 144 -25
346 -55 72 -11 255 -41 409 -66 153 -25 296 -45 317 -45 35 0 50 10 169 117
72 64 138 129 146 144 8 15 14 51 14 79 0 27 2 50 4 50 9 0 274 -41 299 -46
l27 -6 0 -265 0 -265 -30 -30 c-37 -37 -42 -37 -335 15 -110 20 -236 40 -280
47 -44 6 -100 15 -125 20 -25 5 -79 13 -120 20 -41 6 -169 26 -285 45 -115 19
-253 42 -305 50 -52 9 -165 27 -250 41 -85 13 -348 56 -585 95 -236 38 -554
90 -705 114 -151 25 -324 53 -385 64 -60 11 -213 36 -340 56 -217 34 -861 139
-1350 220 -210 35 -572 92 -850 135 -71 12 -222 36 -335 55 -246 42 -1070 177
-1228 201 -129 21 -173 46 -192 112 -6 23 -10 227 -10 542 0 278 -4 1081 -10
1785 -5 704 -11 1800 -14 2435 -4 635 -9 1363 -12 1616 l-7 461 59 20 c32 11
60 20 61 19 0 0 6 -788 12 -1751z m7481 -550 l35 -13 -36 -1 c-62 -2 -159 11
-153 20 8 14 115 9 154 -6z m221 -542 c1 -291 3 -743 5 -1005 l4 -478 -38 -19
c-85 -43 -210 -52 -374 -27 -115 17 -137 31 -216 136 -32 41 -60 77 -63 80 -3
3 -16 27 -27 53 -21 47 -21 59 -22 808 -2 856 -11 766 84 865 80 84 96 92 164
83 31 -5 111 -11 177 -14 110 -5 125 -4 185 18 36 13 77 25 93 26 l27 1 1
-527z m-2441 -1563 c63 -11 210 -33 325 -49 116 -16 298 -43 405 -60 107 -16
245 -37 305 -46 61 -9 155 -23 210 -31 55 -9 111 -17 125 -19 14 -2 72 -11
130 -20 58 -9 140 -21 184 -28 78 -11 79 -12 117 -62 21 -27 65 -84 97 -126
l59 -76 6 -213 c9 -293 9 -1840 0 -1840 -12 0 -445 66 -693 106 -118 19 -318
50 -445 70 -126 20 -268 42 -315 50 -184 30 -285 46 -540 84 -146 22 -321 49
-390 60 -69 11 -186 29 -260 40 -139 21 -476 74 -845 135 -115 18 -257 41
-315 50 -179 26 -631 96 -720 110 -47 7 -175 27 -285 44 -110 17 -236 38 -280
46 -91 17 -424 71 -500 80 -27 4 -142 22 -255 40 -113 18 -278 44 -367 56 -90
13 -163 25 -163 29 0 3 35 17 78 32 42 14 111 40 152 57 75 30 246 95 455 173
61 22 160 60 220 83 61 24 146 55 190 70 44 15 115 42 157 61 43 18 110 44
151 58 41 14 89 32 108 40 19 8 95 37 169 65 74 28 225 84 335 126 110 42 238
90 285 107 47 16 146 54 220 83 74 29 180 69 235 90 262 98 316 119 395 150
96 38 289 111 427 160 50 18 106 40 125 49 42 19 246 98 367 142 52 19 97 36
99 39 12 11 134 4 242 -15z m2113 -314 c126 -19 230 -36 232 -38 3 -2 7 -516
11 -1141 7 -1115 7 -1137 -12 -1137 -24 1 -315 48 -319 52 -1 2 -5 470 -8
1040 l-5 1037 -68 88 c-37 48 -79 101 -93 116 l-26 28 30 -6 c17 -3 133 -21
258 -39z m-6527 -1315 c27 -5 155 -26 284 -45 229 -35 310 -47 765 -121 246
-39 492 -78 635 -101 52 -8 136 -21 185 -29 50 -8 167 -26 260 -40 94 -14 208
-32 255 -40 47 -8 162 -26 255 -40 94 -13 276 -42 405 -64 129 -21 259 -42
289 -45 30 -4 64 -9 75 -11 12 -3 64 -12 116 -20 52 -8 199 -30 325 -50 127
-19 262 -40 300 -46 39 -6 95 -14 125 -19 30 -5 129 -20 220 -34 91 -14 221
-34 290 -46 69 -11 226 -36 350 -55 124 -19 268 -42 320 -50 52 -8 167 -26
255 -40 88 -13 187 -29 220 -35 65 -11 452 -70 460 -70 3 0 4 -101 2 -225 -2
-254 5 -235 -86 -214 -25 5 -160 28 -300 50 -141 22 -411 65 -601 95 -190 29
-374 58 -410 64 -156 23 -283 43 -730 114 -261 42 -592 94 -735 116 -143 22
-287 45 -320 50 -33 5 -163 25 -290 45 -425 66 -610 95 -665 105 -30 5 -145
23 -255 40 -110 17 -294 46 -410 65 -115 19 -232 37 -260 41 -96 12 -819 125
-1085 170 -85 14 -190 30 -232 36 l-78 12 0 223 c0 123 4 223 9 223 4 0 30 -4
57 -9z m1374 -721 c52 -11 96 -20 98 -20 2 0 0 -4 -3 -10 -5 -9 -102 -6 -194
5 -33 4 -33 4 -29 -32 4 -32 1 -37 -24 -47 -19 -7 -28 -18 -29 -33 -2 -38 -4
-43 -11 -43 -5 0 -12 0 -18 0 -5 0 -10 7 -10 15 0 15 -33 26 -185 63 l-79 19
44 23 c164 81 269 96 440 60z m335 -52 c33 -6 73 -14 88 -17 l29 -6 -47 -34
-48 -34 -16 21 c-10 13 -44 28 -94 41 -87 21 -92 24 -82 41 8 13 54 9 170 -12z
m-159 -67 c85 -21 136 -43 124 -54 -3 -3 -50 -23 -105 -44 -115 -46 -169 -49
-267 -12 -55 20 -58 23 -58 56 0 19 6 36 14 39 15 6 166 -62 166 -75 0 -5 13
-14 30 -19 23 -9 33 -8 45 4 22 23 19 32 -19 51 -87 45 -136 77 -126 83 13 8
82 -2 196 -29z m482 13 c220 -27 215 -22 71 -81 -68 -28 -150 -59 -181 -69
-51 -16 -58 -21 -58 -44 0 -14 -6 -34 -12 -43 -11 -14 -13 -6 -13 52 -1 53 -5
74 -19 90 -10 11 -23 18 -27 15 -5 -3 -9 -39 -9 -81 l0 -76 -37 7 c-115 20
-125 19 -218 -17 -49 -20 -90 -35 -91 -34 -1 1 1 16 3 34 4 25 11 33 34 38 16
4 65 24 109 46 45 21 89 39 100 39 33 0 72 20 109 55 69 64 94 85 103 85 6 0
66 -7 136 -16z m-1148 -34 c0 -5 -7 -7 -15 -4 -8 4 -15 8 -15 10 0 2 7 4 15 4
8 0 15 -4 15 -10z m117 -27 l53 -17 -47 -18 c-59 -22 -73 -22 -118 -1 l-36 17
23 18 c29 22 57 22 125 1z m-104 -93 c12 -11 -1 -47 -19 -54 -24 -9 -34 2 -34
40 0 32 2 35 23 29 12 -4 26 -11 30 -15z m2160 -32 c22 -16 49 -23 91 -25 65
-3 58 5 -22 27 -67 17 -46 20 43 5 44 -7 106 -16 138 -20 31 -3 57 -10 57 -14
0 -4 -20 -26 -44 -50 -42 -42 -45 -43 -77 -31 -22 8 -42 9 -58 3 -19 -8 -29
-4 -59 24 -19 18 -40 33 -46 33 -7 0 -27 16 -46 35 -38 39 -25 47 23 13z
m3542 -22 c44 -8 101 -17 128 -21 l47 -6 0 -226 0 -225 -47 6 c-27 4 -84 13
-128 21 -44 8 -97 17 -117 20 l-38 6 0 87 c0 48 -3 150 -7 226 l-6 139 44 -6
c24 -4 80 -13 124 -21z m-3065 -26 c36 -5 70 -10 75 -10 14 -1 -107 -60 -122
-60 -13 0 -83 39 -83 46 0 19 28 43 45 39 11 -3 49 -9 85 -15z m325 -50 c72
-12 154 -24 183 -27 28 -3 52 -9 52 -13 0 -14 -62 -31 -74 -21 -6 5 -75 18
-154 27 l-142 18 -97 -47 c-83 -42 -98 -46 -110 -34 -13 12 -5 19 59 52 40 21
84 46 98 56 14 10 32 16 40 14 8 -2 74 -14 145 -25z m-456 -31 c22 -8 30 -16
27 -26 -3 -8 6 -26 21 -41 23 -23 26 -35 31 -118 5 -93 5 -93 -21 -99 -27 -7
-91 2 -232 32 -142 31 -210 43 -280 50 -36 3 -65 10 -65 14 0 5 9 9 19 9 11 0
22 4 26 9 3 6 31 22 63 37 31 14 65 34 75 42 17 16 18 15 12 -10 -29 -116 201
-183 243 -71 21 57 22 66 11 105 -9 34 -8 43 7 59 20 22 21 22 63 8z m-140
-60 c28 -23 33 -72 10 -94 -8 -7 -30 -16 -50 -20 -30 -5 -41 -2 -67 20 -40 34
-40 56 -1 89 36 31 75 33 108 5z m648 -3 c2 -1 -52 -29 -119 -61 -68 -32 -153
-73 -190 -91 l-68 -33 0 60 c0 34 4 59 10 59 6 0 48 18 93 40 l82 41 94 -6
c52 -3 96 -7 98 -9z m1872 -208 l74 -13 -74 -31 c-82 -35 -335 -146 -387 -170
-25 -12 -32 -21 -30 -37 3 -24 3 -23 191 -58 85 -15 127 -28 127 -36 0 -18 68
-16 100 2 17 10 42 12 83 8 31 -3 57 -3 57 0 0 10 -100 35 -250 62 -80 14
-153 29 -164 32 -13 4 14 20 90 52 60 26 136 60 169 76 33 15 89 40 125 54
l65 27 110 -17 c61 -9 155 -24 210 -33 55 -9 103 -16 108 -16 4 0 7 -25 7 -55
0 -53 -2 -57 -49 -103 -93 -90 -187 -171 -213 -182 -27 -13 -166 6 -388 50
-52 11 -142 26 -200 34 -149 21 -482 75 -503 82 -17 5 -17 7 4 22 13 9 134 66
269 127 135 61 259 119 275 128 32 17 68 16 194 -5z"/>
<path d="M8243 14200 c-69 -28 -69 -167 -1 -214 46 -33 118 -10 118 37 0 21
-33 22 -50 2 -30 -37 -73 8 -72 76 1 70 35 89 77 43 15 -16 31 -24 40 -20 35
13 -33 88 -78 85 -7 0 -22 -4 -34 -9z"/>
<path d="M8422 14119 c-46 -17 -51 -110 -9 -150 25 -23 65 -25 93 -5 15 12 17
17 6 28 -10 10 -16 10 -33 0 -23 -15 -49 -1 -49 24 0 10 11 12 45 8 42 -5 45
-4 45 19 0 29 -32 73 -58 79 -10 3 -28 1 -40 -3z m42 -35 c25 -10 19 -34 -9
-34 -24 0 -34 18 -18 33 8 8 8 8 27 1z"/>
<path d="M8720 14110 c0 -11 -7 -20 -15 -20 -8 0 -15 -7 -15 -15 0 -9 7 -18
15 -21 11 -5 15 -22 15 -63 0 -62 11 -81 47 -81 26 0 32 25 8 34 -19 7 -22
107 -3 104 6 -2 14 5 16 15 2 10 -2 17 -12 17 -10 0 -16 9 -16 25 0 18 -5 25
-20 25 -13 0 -20 -7 -20 -20z"/>
<path d="M8552 14023 c2 -70 6 -88 18 -88 11 0 16 14 18 57 3 56 20 86 42 73
5 -3 10 -35 10 -69 0 -55 3 -64 20 -69 19 -5 20 0 20 66 0 40 -4 77 -8 83 -14
21 -47 33 -64 23 -11 -6 -19 -6 -23 1 -3 5 -13 10 -21 10 -12 0 -14 -16 -12
-87z"/>
<path d="M9240 14070 c0 -24 26 -38 42 -22 8 8 8 15 -2 27 -18 21 -40 19 -40
-5z"/>
<path d="M8820 14055 c-18 -22 -3 -34 35 -28 28 4 35 2 35 -11 0 -11 -9 -16
-29 -16 -51 0 -80 -50 -47 -83 12 -11 117 -33 121 -24 1 1 -1 37 -4 80 -4 53
-11 81 -21 87 -23 15 -76 12 -90 -5z m70 -100 c0 -9 -7 -18 -16 -22 -18 -7
-39 11 -30 26 11 17 46 13 46 -4z"/>
<path d="M8970 13984 c0 -89 15 -108 85 -110 l45 -1 0 83 c0 77 -2 84 -20 84
-16 0 -19 -8 -22 -62 -3 -55 -5 -63 -23 -63 -18 0 -20 8 -23 66 -2 57 -6 68
-22 72 -19 5 -20 0 -20 -69z"/>
<path d="M9445 14052 c-46 -7 -73 -102 -48 -165 27 -66 105 -89 142 -41 27 35
26 44 -4 44 -14 0 -25 -4 -25 -9 0 -5 -10 -13 -22 -17 -16 -5 -27 -1 -40 16
-21 26 -25 99 -6 118 19 19 56 14 68 -8 9 -17 50 -29 50 -15 0 7 -29 65 -33
65 -1 0 -16 4 -32 8 -17 4 -39 6 -50 4z"/>
<path d="M9140 13961 c0 -38 -3 -76 -6 -85 -5 -12 0 -16 20 -16 25 0 26 2 26
54 0 52 9 70 35 71 6 0 10 9 10 20 0 21 -22 27 -42 12 -9 -6 -13 -6 -13 2 0 6
-7 11 -15 11 -12 0 -15 -14 -15 -69z"/>
<path d="M9240 13936 c0 -80 1 -86 20 -86 20 0 21 5 18 82 -3 70 -6 83 -20 86
-16 3 -18 -6 -18 -82z"/>
<path d="M9860 13890 c0 -115 1 -121 19 -115 11 3 29 0 39 -6 16 -10 25 -10
46 4 30 20 41 54 32 101 -8 42 -29 60 -69 60 -30 0 -32 2 -32 35 0 26 -5 36
-17 39 -16 3 -18 -8 -18 -118z m88 -2 c14 -14 15 -57 2 -78 -22 -35 -63 32
-46 76 7 17 28 18 44 2z"/>
<path d="M9605 13964 c-24 -25 -17 -35 21 -32 23 2 39 -2 41 -9 3 -9 -6 -13
-25 -13 -36 0 -62 -23 -62 -54 0 -32 25 -50 69 -52 20 0 42 -3 50 -5 11 -3 13
11 12 71 -1 44 -7 80 -15 88 -19 19 -74 23 -91 6z m65 -104 c0 -13 -7 -20 -19
-20 -22 0 -35 15 -26 30 12 19 45 11 45 -10z"/>
<path d="M9750 13874 c0 -75 2 -84 19 -84 15 0 19 8 20 51 1 59 5 69 32 69 15
0 20 6 17 23 -3 18 -10 22 -45 24 l-43 1 0 -84z"/>
<path d="M10047 13908 c-44 -33 -35 -130 13 -155 29 -15 69 -8 87 15 16 22 16
92 0 113 -14 19 -50 39 -69 39 -8 0 -22 -6 -31 -12z m68 -78 c0 -41 -2 -45
-25 -45 -21 0 -26 5 -28 33 -5 47 4 64 30 60 20 -3 23 -9 23 -48z"/>
<path d="M10190 13815 c0 -78 2 -85 20 -85 17 0 20 7 20 53 0 59 11 83 34 74
12 -5 16 -21 16 -72 0 -59 2 -65 20 -65 19 0 21 5 18 77 -3 71 -5 79 -27 90
-17 8 -31 9 -43 2 -12 -6 -18 -6 -18 1 0 5 -9 10 -20 10 -18 0 -20 -7 -20 -85z"/>
<path d="M10443 4664 c-54 -52 -56 -56 -37 -64 12 -5 41 -10 64 -12 l44 -3 2
68 c2 37 -1 67 -6 67 -4 0 -34 -25 -67 -56z"/>
<path d="M10595 10161 c-3 -6 -5 -422 -3 -926 l3 -915 28 0 27 0 -2 923 -3
922 -22 3 c-11 2 -24 -2 -28 -7z"/>
<path d="M17176 12732 c-3 -5 -19 -116 -36 -248 -17 -131 -39 -304 -50 -384
-11 -80 -22 -173 -26 -207 -7 -62 -6 -63 19 -63 27 0 37 16 37 62 0 17 15 137
34 267 19 130 40 285 46 345 6 61 15 132 21 159 5 28 9 56 9 63 0 15 -45 20
-54 6z"/>
<path d="M17345 9626 c-113 -26 -182 -55 -281 -118 -252 -164 -466 -425 -662
-810 -168 -330 -257 -561 -341 -889 -45 -176 -42 -162 -76 -329 -116 -571
-142 -1188 -69 -1690 68 -471 183 -813 365 -1085 167 -250 364 -383 599 -405
119 -11 229 5 339 49 62 25 185 95 210 120 9 9 39 32 66 53 163 119 400 438
542 728 247 505 384 977 472 1630 25 187 35 355 35 615 1 615 -107 1156 -311
1560 -109 216 -265 399 -415 488 -131 78 -336 114 -473 83z m400 -106 c86 -42
124 -70 193 -140 114 -115 172 -197 247 -348 132 -265 224 -596 276 -992 38
-294 37 -878 -3 -1130 -5 -36 -12 -82 -14 -104 -12 -112 -48 -298 -119 -611
-50 -216 -169 -569 -251 -743 -24 -52 -44 -100 -44 -107 0 -7 -4 -15 -8 -17
-5 -1 -40 -65 -80 -140 -76 -147 -113 -208 -157 -261 -6 -7 -19 -25 -29 -42
-38 -60 -168 -205 -257 -288 -316 -293 -679 -327 -970 -92 -37 30 -84 76 -106
102 -21 26 -41 50 -44 53 -3 3 -30 41 -58 85 -144 220 -272 572 -326 895 -48
283 -58 416 -58 775 -1 423 17 618 97 1025 42 211 143 601 176 675 5 11 27 67
49 125 132 346 309 676 481 895 103 132 283 291 410 362 180 101 417 110 595
23z"/>
<path d="M17370 8309 c-70 -11 -139 -41 -210 -92 -119 -85 -205 -196 -320
-412 -37 -70 -114 -282 -144 -395 -68 -257 -90 -472 -83 -787 5 -223 11 -277
53 -443 48 -194 120 -342 212 -441 63 -69 120 -105 194 -125 73 -19 114 -18
194 7 117 35 199 98 328 252 149 177 294 558 342 897 8 63 27 156 40 205 52
188 42 421 -25 560 -16 33 -34 92 -41 130 -73 417 -296 684 -540 644z m182
-90 c129 -76 228 -240 288 -478 11 -41 17 -78 15 -82 -3 -4 -26 1 -52 11 -27
9 -54 15 -61 13 -8 -3 -53 2 -100 11 -271 50 -371 57 -421 32 -81 -42 -199
-215 -251 -366 -67 -198 -103 -487 -81 -660 49 -395 234 -587 456 -472 77 39
171 160 238 305 l36 77 42 0 c57 0 118 31 169 86 23 25 43 44 45 42 5 -6 -35
-185 -70 -308 -38 -133 -144 -365 -215 -469 -94 -137 -222 -250 -324 -284 -61
-21 -162 -22 -207 -3 -273 115 -432 621 -388 1231 27 380 122 714 280 987 22
37 45 73 52 80 7 7 28 34 46 61 32 47 123 129 190 171 102 64 220 70 313 15z
m-81 -554 c101 -14 186 -25 189 -25 2 0 -11 -11 -30 -24 -71 -48 -153 -191
-190 -331 -26 -101 -31 -137 -31 -260 -1 -122 14 -195 59 -287 16 -32 26 -58
23 -58 -3 0 -125 18 -271 40 -146 22 -268 40 -272 40 -5 0 -8 42 -8 93 0 266
79 549 200 711 44 60 114 126 134 126 8 0 96 -11 197 -25z m333 -59 c109 -45
175 -257 147 -473 -25 -195 -107 -373 -203 -439 -34 -24 -52 -29 -99 -29 -49
0 -62 4 -87 28 -113 108 -135 383 -51 636 40 120 125 242 192 275 40 19 59 20
101 2z m-707 -926 c76 -11 210 -29 297 -40 88 -11 162 -23 165 -25 6 -6 -71
-155 -109 -210 -114 -165 -274 -203 -369 -88 -36 43 -76 124 -97 193 -21 72
-42 190 -33 190 4 0 70 -9 146 -20z"/>
<path d="M17685 7467 c-98 -56 -173 -250 -162 -417 8 -127 65 -228 138 -248
127 -34 246 178 237 423 -3 90 -7 109 -33 160 -50 96 -109 123 -180 82z m90
-57 c61 -23 90 -175 60 -320 -20 -100 -52 -167 -95 -204 -88 -73 -160 14 -160
193 0 98 16 169 57 248 42 84 78 106 138 83z"/>
<path d="M7870 3993 c-21 -9 -150 -98 -181 -126 -44 -40 -47 -48 -145 -372
-39 -128 -127 -409 -194 -620 -10 -33 -44 -143 -74 -245 -50 -165 -89 -291
-132 -431 -18 -56 -14 -75 37 -185 47 -101 72 -121 179 -140 44 -8 117 -21
163 -29 45 -8 125 -22 177 -30 52 -9 149 -25 215 -36 66 -11 147 -24 180 -29
33 -6 74 -12 90 -15 17 -3 46 -8 65 -11 19 -3 80 -14 135 -24 55 -10 150 -26
210 -35 61 -9 200 -32 310 -51 372 -65 430 -74 490 -83 33 -5 152 -26 265 -46
113 -20 233 -40 268 -45 34 -6 81 -14 105 -20 23 -5 67 -10 97 -10 51 0 64 5
153 61 53 33 106 72 117 86 22 29 93 248 205 638 48 164 87 298 130 440 14 44
36 121 51 170 14 50 45 155 70 235 24 80 49 171 56 202 l12 57 -52 104 c-32
66 -62 111 -79 122 -18 12 -106 31 -265 56 -130 20 -261 42 -290 48 -29 6
-129 22 -223 37 -93 14 -359 57 -590 96 -231 38 -458 75 -505 83 -47 7 -233
39 -415 70 -181 31 -370 63 -420 71 -92 14 -188 17 -215 7z m182 -58 c51 -9
188 -31 303 -51 116 -20 266 -44 334 -54 68 -11 131 -22 140 -25 9 -2 59 -11
111 -19 52 -8 149 -24 215 -35 66 -11 246 -41 400 -66 257 -42 502 -82 1023
-167 l193 -31 49 -88 c50 -88 50 -89 39 -141 -6 -29 -32 -125 -59 -213 -26
-88 -59 -200 -73 -250 -73 -248 -324 -1093 -348 -1167 -17 -51 -59 -84 -199
-153 -33 -16 -42 -16 -130 -1 -135 22 -643 110 -850 146 -96 17 -258 45 -360
61 -194 31 -380 62 -515 84 -109 18 -428 72 -495 85 -30 5 -149 26 -265 45
-115 19 -227 40 -248 46 -42 11 -75 54 -112 146 -22 53 -21 79 7 153 8 19 88
276 127 405 51 168 112 367 131 430 40 127 109 351 115 375 4 14 27 87 51 164
48 149 80 226 93 226 5 0 30 18 57 39 56 45 107 69 146 70 15 1 69 -6 120 -14z"/>
<path d="M7947 3623 c-22 -6 -40 -40 -66 -133 -12 -41 -35 -118 -51 -170 -16
-52 -70 -232 -120 -400 -50 -168 -106 -354 -125 -415 -50 -164 -67 -237 -57
-247 8 -8 115 -29 327 -63 50 -8 128 -21 175 -29 47 -8 315 -54 595 -101 281
-47 587 -99 680 -116 395 -68 780 -130 799 -127 22 3 26 14 71 168 15 52 36
122 45 155 10 33 26 89 35 125 10 36 31 106 47 155 16 50 35 113 43 140 7 28
47 169 89 315 42 145 76 274 76 286 0 33 -17 41 -130 58 -58 9 -125 21 -150
26 -25 6 -229 40 -455 76 -483 77 -742 120 -845 139 -41 7 -138 23 -215 35
-77 12 -189 30 -250 41 -217 36 -470 80 -485 83 -8 2 -23 1 -33 -1z m141 -74
c59 -10 73 -16 69 -28 -46 -162 -182 -626 -202 -686 -21 -67 -61 -204 -151
-523 -12 -42 -19 -52 -32 -48 -9 3 -53 10 -97 17 -44 6 -83 14 -87 18 -3 3 8
56 26 116 120 403 163 545 198 660 21 72 51 168 65 215 14 47 34 110 43 140
10 30 23 74 30 98 10 40 13 43 38 38 15 -3 60 -10 100 -17z m392 -64 c234 -39
405 -67 545 -90 114 -18 340 -55 570 -94 299 -50 545 -91 645 -106 207 -33
222 -36 215 -53 -3 -9 -22 -70 -41 -136 -41 -141 -176 -604 -209 -721 -65
-224 -114 -384 -121 -397 -8 -13 -30 -12 -169 13 -88 15 -365 62 -615 104
-250 41 -509 85 -575 96 -66 12 -142 25 -170 29 -205 34 -709 120 -711 123 -2
2 10 48 27 102 16 55 44 150 61 210 17 61 48 169 70 240 22 72 56 184 74 250
19 66 46 156 59 200 14 44 34 114 46 155 33 117 36 121 61 115 13 -3 120 -21
238 -40z"/>
<path d="M8267 3375 c-9 -13 -29 -66 -42 -117 -14 -51 -37 -135 -51 -187 -27
-97 -26 -136 4 -145 36 -12 315 -56 351 -56 23 0 44 7 54 18 14 16 113 321
124 384 8 44 -21 64 -112 78 -44 6 -130 20 -191 31 -61 10 -113 19 -115 19 -2
0 -12 -11 -22 -25z m227 -61 c83 -15 154 -29 157 -33 4 -3 -2 -31 -13 -61 -10
-30 -35 -110 -55 -177 -31 -105 -40 -123 -57 -123 -23 0 -319 51 -325 56 -1 1
6 31 17 66 12 35 33 108 48 163 31 116 39 135 61 135 8 0 84 -12 167 -26z"/>
<path d="M8439 3270 c86 -14 117 -90 62 -152 -33 -37 -82 -43 -125 -15 -42 28
-47 94 -10 132 9 9 13 19 10 22 -13 14 -48 -35 -53 -75 -5 -37 -2 -45 30 -77
27 -27 43 -35 71 -35 97 0 152 81 111 161 -18 34 -51 50 -103 48 l-37 -2 44
-7z"/>
<path d="M8440 3243 c0 -5 -4 -25 -9 -45 -5 -21 -5 -38 -1 -38 9 0 30 54 30
76 0 14 -20 20 -20 7z"/>
<path d="M8303 3020 c3 -11 0 -20 -6 -20 -7 0 -6 -4 3 -10 9 -5 19 -5 26 1 8
7 13 6 16 -3 4 -10 8 -10 21 1 12 9 17 10 17 2 0 -7 4 -10 9 -7 5 4 12 0 14
-6 4 -9 6 -8 6 3 1 8 -5 21 -11 28 -11 11 -10 13 2 9 8 -3 16 -14 18 -26 3
-19 11 -24 40 -21 4 0 6 9 5 20 -2 13 1 18 9 13 7 -4 8 -3 4 5 -9 14 -29 3
-23 -13 3 -7 -1 -13 -9 -13 -9 0 -12 7 -8 19 3 10 2 18 -3 17 -4 -1 -16 1 -26
6 -12 5 -23 1 -37 -15 -16 -19 -20 -20 -20 -7 0 10 5 17 12 17 23 0 -3 13 -33
17 -27 3 -31 0 -26 -17z m27 0 c0 -5 -4 -10 -10 -10 -5 0 -10 5 -10 10 0 6 5
10 10 10 6 0 10 -4 10 -10z"/>
<path d="M8817 3295 c-20 -15 -49 -98 -103 -299 -34 -125 -35 -130 -17 -147
13 -13 71 -26 211 -50 l193 -32 24 23 c13 12 27 37 30 54 4 17 19 72 35 121
15 50 36 125 46 167 24 105 20 109 -129 132 -61 10 -147 24 -191 32 -43 8 -79
14 -80 14 0 0 -9 -7 -19 -15z m138 -60 c44 -8 112 -20 150 -26 39 -6 75 -14
81 -18 11 -6 5 -30 -72 -288 -16 -54 -29 -81 -37 -78 -6 3 -83 16 -171 30 -87
13 -160 26 -162 28 -3 2 19 86 47 186 40 139 56 181 68 181 9 -1 52 -7 96 -15z"/>
<path d="M8984 3174 c4 -11 2 -15 -8 -11 -8 3 -20 -1 -26 -9 -7 -8 -20 -14
-30 -14 -26 0 -39 -21 -38 -60 1 -42 21 -85 43 -94 43 -16 78 -6 117 34 34 37
52 70 29 56 -5 -4 -7 3 -4 14 3 11 1 20 -5 20 -5 0 -12 -17 -16 -38 -7 -47
-36 -75 -78 -75 -38 0 -68 33 -68 74 0 16 0 32 -1 36 0 4 3 9 8 10 4 2 9 -16
10 -39 1 -40 21 -68 47 -68 6 0 0 7 -12 16 -30 21 -30 79 0 105 11 11 23 19
25 19 13 0 35 -33 37 -55 4 -35 16 -44 16 -12 0 14 5 29 10 32 15 9 12 41 -4
54 -11 10 -17 8 -26 -6 -10 -16 -11 -16 -7 5 4 15 0 22 -10 22 -10 0 -13 -6
-9 -16z m56 -28 c0 -3 -4 -8 -10 -11 -5 -3 -10 -1 -10 4 0 6 5 11 10 11 6 0
10 -2 10 -4z"/>
<path d="M8820 2940 c0 -5 5 -12 11 -16 8 -4 7 -9 -2 -15 -11 -7 -10 -9 5 -9
13 0 17 5 13 20 -3 11 -1 20 4 20 5 0 9 -10 9 -21 0 -16 5 -20 20 -16 10 3 21
0 22 -5 2 -6 9 1 16 16 7 15 8 26 2 26 -6 0 -10 -8 -11 -17 0 -15 -2 -14 -9 3
-6 15 -18 21 -44 22 -20 1 -36 -3 -36 -8z m62 -22 c-7 -7 -12 -8 -12 -2 0 14
12 26 19 19 2 -3 -1 -11 -7 -17z"/>
<path d="M8944 2924 c-4 -10 -9 -22 -11 -26 -2 -5 0 -8 5 -8 10 0 24 41 17 48
-3 3 -8 -4 -11 -14z"/>
<path d="M8967 2917 c-11 -29 1 -38 46 -34 30 3 43 9 45 21 3 12 -2 17 -15 15
-10 -2 -24 0 -31 5 -9 5 -15 1 -20 -15 l-6 -24 -6 25 c-5 22 -7 23 -13 7z"/>
<path d="M9353 3193 c-13 -8 -23 -21 -23 -27 0 -6 -25 -94 -55 -195 -30 -101
-55 -187 -55 -190 0 -32 32 -43 224 -75 l200 -33 22 21 c13 11 27 39 32 61 16
66 50 187 76 271 23 71 24 81 10 101 -8 13 -15 23 -17 23 -1 0 -56 9 -122 21
-258 44 -261 44 -292 22z m137 -49 c14 -3 75 -13 135 -23 127 -19 121 -7 79
-146 -79 -258 -75 -247 -98 -242 -11 3 -85 16 -163 28 -78 12 -147 25 -152 29
-11 6 9 91 60 264 16 54 29 100 29 101 0 4 77 -4 110 -11z"/>
<path d="M9410 3038 c0 -5 7 -11 15 -14 22 -9 18 -23 -10 -36 -31 -14 -23 -28
16 -28 16 0 41 -7 54 -16 13 -9 30 -14 37 -11 8 3 2 9 -14 15 -27 11 -44 44
-33 62 3 5 18 10 33 10 20 0 23 3 14 12 -9 9 -19 10 -42 1 -16 -6 -32 -8 -35
-3 -3 5 1 10 7 13 7 2 1 4 -14 4 -16 0 -28 -4 -28 -9z"/>
<path d="M9560 3011 c0 -5 6 -11 13 -14 9 -3 7 -9 -5 -24 -10 -11 -18 -24 -18
-29 0 -5 8 -10 18 -10 9 -1 25 -4 35 -9 12 -5 17 -3 17 9 0 9 -7 16 -15 16
-25 0 -17 27 11 34 14 4 24 12 21 19 -4 14 -77 22 -77 8z m70 -5 c0 -2 -9 -6
-20 -9 -11 -3 -20 -1 -20 4 0 5 9 9 20 9 11 0 20 -2 20 -4z"/>
<path d="M9515 2980 c28 -12 45 -12 45 0 0 6 -15 10 -32 9 -28 0 -30 -2 -13
-9z"/>
<path d="M9360 2839 c0 -16 5 -26 15 -26 8 0 15 6 15 14 0 7 5 13 11 13 5 0 7
5 3 11 -4 8 -9 7 -15 -2 -8 -12 -11 -11 -19 1 -8 12 -10 10 -10 -11z"/>
<path d="M9413 2833 c-22 -8 -14 -21 17 -31 19 -7 32 -7 36 -1 4 6 11 6 20 -2
7 -6 20 -9 28 -6 8 3 17 1 19 -6 3 -9 8 -9 18 1 11 10 11 12 0 12 -7 0 -11 6
-8 13 3 8 -1 14 -9 14 -8 0 -14 -6 -14 -14 0 -7 -5 -13 -11 -13 -6 0 -8 10 -5
23 3 12 3 16 0 10 -3 -7 -10 -13 -15 -13 -6 0 -7 5 -4 10 3 6 2 10 -3 10 -6 0
-13 -8 -17 -17 -7 -17 -8 -16 -15 2 l-9 20 -1 -20 c-1 -16 -3 -17 -8 -4 -4 9
-13 14 -19 12z"/>
<path d="M9564 2818 c-5 -7 -3 -8 6 -3 10 6 12 3 8 -13 -4 -12 -2 -20 3 -16
12 7 12 44 0 44 -6 0 -13 -5 -17 -12z"/>
<path d="M9892 3105 c-6 -8 -16 -25 -22 -37 -11 -27 -100 -378 -100 -396 0
-19 35 -29 202 -56 175 -29 207 -31 231 -13 16 11 96 263 118 366 18 86 12 89
-216 125 -183 30 -195 30 -213 11z m218 -65 c80 -12 150 -23 157 -25 21 -7
-88 -375 -111 -375 -7 0 -73 11 -147 25 -74 14 -144 25 -156 25 -13 0 -23 5
-23 11 0 5 19 78 41 162 23 84 44 165 47 180 4 23 9 28 26 23 11 -2 86 -14
166 -26z"/>
<path d="M10023 2990 c-4 -14 -11 -19 -22 -15 -14 4 -21 -6 -34 -48 -31 -97
-28 -101 72 -113 46 -5 61 -3 61 6 0 7 -6 10 -13 7 -7 -2 -39 0 -70 5 -46 8
-57 13 -53 27 3 9 10 35 17 59 12 42 36 61 24 20 -3 -13 4 -6 15 15 15 27 26
37 38 33 9 -2 32 -7 50 -11 28 -6 32 -11 32 -38 0 -18 -9 -49 -20 -69 -13 -25
-16 -39 -9 -44 15 -9 25 4 42 53 9 26 12 56 8 75 -6 28 -12 33 -46 40 -22 4
-50 10 -63 13 -18 4 -25 1 -29 -15z"/>
<path d="M10037 2964 c-4 -4 -7 -15 -7 -25 0 -10 -10 -27 -21 -38 -26 -24 -19
-51 13 -52 13 0 33 -2 46 -5 19 -3 26 3 38 31 15 37 18 71 7 78 -17 10 -69 17
-76 11z m73 -31 c3 -3 -4 -11 -15 -19 -12 -9 -21 -11 -23 -4 -2 5 -10 10 -18
10 -15 0 -19 12 -8 23 7 6 54 -1 64 -10z m-64 -39 c-5 -13 -1 -14 25 -9 28 6
30 6 18 -13 -10 -16 -17 -18 -37 -11 -13 5 -28 7 -33 3 -17 -10 -9 19 9 32 22
17 25 17 18 -2z"/>
<path d="M9947 2739 c-8 -28 -6 -29 29 -32 21 -1 29 3 33 19 5 19 8 20 19 8 7
-8 8 -14 2 -14 -5 0 -10 -7 -10 -16 0 -21 39 -15 54 8 16 25 -1 36 -65 44 -53
6 -56 5 -62 -17z m43 1 c12 -7 12 -12 2 -22 -9 -9 -12 -8 -12 8 0 16 -2 17
-10 4 -8 -13 -10 -12 -10 3 0 19 8 21 30 7z m80 -9 c0 -13 -29 -35 -37 -27 -3
3 -1 6 5 6 7 0 12 7 12 15 0 8 5 15 10 15 6 0 10 -4 10 -9z"/>
<path d="M8095 2787 c-16 -25 -115 -364 -115 -394 0 -41 22 -52 157 -78 187
-35 259 -41 275 -24 17 18 40 70 34 76 -3 3 0 17 5 31 5 14 19 57 29 96 11 39
28 101 39 138 17 63 18 118 2 118 -4 0 -86 13 -182 30 -212 36 -224 37 -244 7z
m201 -52 c82 -14 159 -27 170 -30 l22 -5 -23 -77 c-56 -191 -88 -285 -99 -289
-7 -3 -46 2 -87 10 -41 8 -114 20 -162 27 -82 12 -88 14 -83 33 33 126 102
356 106 356 4 0 74 -11 156 -25z"/>
<path d="M8265 2667 c-22 -4 -49 -9 -60 -11 -14 -2 -20 -11 -20 -31 -1 -16 -6
-30 -13 -33 -14 -4 -16 -32 -2 -32 6 0 10 -5 10 -11 0 -6 -7 -9 -15 -5 -8 3
-15 1 -15 -4 0 -6 9 -10 21 -10 11 0 33 -9 48 -19 26 -19 30 -19 82 -4 59 17
69 26 69 64 0 14 6 31 13 38 9 11 9 14 0 18 -7 2 -27 14 -45 27 -27 18 -40 20
-73 13z m66 -29 c41 -20 42 -22 20 -28 -14 -3 -26 -11 -29 -19 -3 -10 0 -11
17 -2 20 11 29 2 14 -13 -4 -4 -8 -15 -8 -24 0 -10 -16 -21 -45 -29 -54 -16
-92 -4 -109 34 -10 22 -8 30 14 58 14 19 35 36 47 38 13 2 26 5 29 6 3 0 25
-9 50 -21z"/>
<path d="M8220 2600 c0 -5 7 -7 16 -3 12 4 15 2 12 -8 -3 -8 -11 -13 -17 -11
-15 3 -14 -7 3 -23 12 -12 15 -12 20 0 3 8 12 12 20 9 9 -3 19 3 26 16 15 29
2 40 -17 15 -13 -16 -15 -17 -10 -2 5 14 1 17 -23 17 -17 0 -30 -4 -30 -10z"/>
<path d="M8288 2553 c-28 -7 -21 -21 7 -15 14 2 25 8 25 13 0 9 -4 10 -32 2z"/>
<path d="M8060 2446 c0 -16 5 -26 15 -26 8 0 15 6 15 13 0 8 4 7 10 -3 5 -8
10 -10 10 -5 0 6 4 4 9 -4 5 -8 28 -14 60 -15 28 0 51 -4 51 -8 0 -5 5 -8 11
-8 5 0 7 5 3 11 -3 6 0 15 7 21 11 7 9 8 -6 6 -11 -1 -26 1 -32 5 -7 4 -21 3
-32 -3 -26 -13 -52 -14 -31 0 17 11 17 10 -28 15 -18 2 -40 9 -48 15 -12 10
-14 8 -14 -14z"/>
<path d="M8269 2408 c-11 -21 -11 -22 4 -9 15 12 17 11 17 -3 0 -9 6 -16 13
-17 6 0 27 -2 45 -5 27 -3 32 -1 32 17 0 16 -5 20 -20 16 -11 -3 -20 -1 -20 4
0 14 -28 11 -33 -3 -3 -8 -6 -6 -6 5 -1 24 -18 21 -32 -5z"/>
<path d="M8636 2698 c-15 -24 -115 -355 -121 -400 -2 -15 3 -32 11 -39 20 -16
394 -78 419 -69 11 4 21 16 23 26 2 11 14 53 27 94 41 132 85 288 85 302 0 35
-39 50 -207 79 -207 35 -219 35 -237 7z m232 -62 c85 -14 155 -26 157 -28 3
-3 -29 -118 -76 -272 l-30 -98 -37 6 c-317 54 -307 52 -306 72 1 10 23 94 50
186 43 154 49 167 68 163 12 -3 90 -16 174 -29z"/>
<path d="M8801 2589 c-62 -8 -115 -49 -93 -71 7 -7 12 -20 12 -29 0 -9 7 -19
15 -23 8 -3 20 -17 26 -30 16 -35 38 -40 64 -16 12 11 27 20 34 20 7 0 28 12
46 26 l34 25 -17 34 c-9 19 -20 35 -24 35 -9 0 1 -30 16 -49 8 -10 3 -19 -19
-37 -41 -33 -68 -32 -32 1 31 30 32 34 12 61 -12 15 -16 16 -23 6 -7 -11 -10
-10 -16 3 -9 24 3 38 20 24 19 -16 32 -2 13 14 -10 10 -29 11 -68 6z m16 -26
c2 -6 -5 -13 -16 -16 -11 -2 -21 -15 -24 -28 -4 -22 -4 -22 -6 4 0 15 -5 27
-11 27 -14 0 -12 -44 3 -58 6 -7 13 -17 13 -22 1 -6 2 -15 3 -21 1 -7 11 -9
28 -4 23 5 25 4 14 -9 -20 -24 -35 -20 -54 14 -10 17 -23 30 -29 30 -6 0 -8 9
-5 20 3 10 0 21 -6 23 -15 5 22 43 48 50 26 6 38 3 42 -10z m13 -45 c0 -5 -7
-8 -15 -4 -8 3 -15 2 -15 -3 0 -20 40 -18 54 3 l15 21 0 -24 c1 -13 -2 -22 -5
-18 -4 3 -14 -1 -22 -10 -11 -10 -17 -12 -20 -4 -2 6 -8 11 -13 11 -4 0 -6 -7
-3 -15 4 -8 1 -15 -5 -15 -15 0 -14 67 2 73 15 5 27 -1 27 -15z"/>
<path d="M8648 2342 c-4 -15 -2 -19 8 -15 8 3 14 0 14 -6 0 -6 4 -11 9 -11 5
0 8 11 7 25 -1 25 -16 36 -16 13 0 -10 -2 -10 -9 0 -6 11 -9 9 -13 -6z"/>
<path d="M8698 2348 c-7 -18 2 -39 12 -33 5 3 6 13 3 22 -5 12 -3 14 7 8 9 -5
11 -4 6 3 -9 16 -23 15 -28 0z"/>
<path d="M8740 2335 c0 -28 1 -30 21 -28 10 2 19 -2 19 -8 0 -6 8 -9 18 -8 9
1 25 -1 34 -5 22 -10 38 0 38 23 0 28 -35 32 -56 8 -13 -16 -19 -18 -22 -8 -2
7 1 17 8 21 7 4 8 10 3 13 -5 3 -17 -3 -26 -14 -20 -23 -39 -25 -31 -4 4 8 10
12 15 9 5 -3 9 0 9 5 0 6 -7 11 -15 11 -8 0 -15 -7 -15 -15z m120 -30 c0 -8
-7 -15 -15 -15 -8 0 -15 7 -15 15 0 8 7 15 15 15 8 0 15 -7 15 -15z"/>
<path d="M9177 2606 c-18 -27 -127 -384 -127 -414 0 -30 14 -34 205 -66 222
-36 238 -35 259 19 32 83 105 364 100 387 -6 31 -12 34 -114 48 -41 6 -118 17
-170 26 -52 8 -105 16 -117 18 -14 2 -28 -5 -36 -18z m201 -56 c167 -27 188
-33 185 -51 -5 -27 -101 -340 -106 -346 -8 -7 -329 47 -341 58 -5 5 13 81 44
184 44 145 57 175 72 175 10 0 76 -9 146 -20z"/>
<path d="M9257 2458 c-9 -29 -20 -67 -23 -84 -7 -37 -8 -37 109 -55 90 -14 88
-15 112 66 24 87 24 87 -20 101 -23 6 -68 15 -101 19 l-61 7 -16 -54z m146 20
c36 -7 56 -15 54 -23 -3 -6 -13 -39 -22 -74 -17 -58 -19 -62 -44 -57 -14 3
-44 8 -66 12 -22 3 -48 8 -57 11 -19 5 -25 38 -9 47 5 3 9 16 9 28 0 13 5 35
10 49 11 29 11 29 125 7z"/>
<path d="M9306 2448 c-27 -30 -11 -79 29 -90 22 -5 32 -4 38 7 12 22 29 18 22
-5 -4 -11 -2 -20 4 -20 13 0 13 1 15 57 3 54 -1 59 -49 66 -32 5 -44 2 -59
-15z m86 -22 c6 -30 -21 -41 -50 -20 -11 7 -22 10 -26 7 -3 -3 -6 1 -6 11 0 9
5 14 10 11 6 -3 10 -1 10 4 0 6 13 11 29 11 22 0 30 -5 33 -24z m-62 -46 c0
-5 -4 -10 -10 -10 -5 0 -10 5 -10 10 0 6 5 10 10 10 6 0 10 -4 10 -10z m30 0
c0 -5 -4 -10 -10 -10 -5 0 -10 5 -10 10 0 6 5 10 10 10 6 0 10 -4 10 -10z"/>
<path d="M9360 2426 c0 -9 5 -16 10 -16 6 0 10 4 10 9 0 6 -4 13 -10 16 -5 3
-10 -1 -10 -9z"/>
<path d="M9270 2380 c0 -5 5 -10 10 -10 6 0 10 5 10 10 0 6 -4 10 -10 10 -5 0
-10 -4 -10 -10z"/>
<path d="M9147 2268 c-9 -31 -2 -33 11 -3 6 14 8 25 3 25 -5 0 -11 -10 -14
-22z"/>
<path d="M9175 2266 c-11 -8 -16 -18 -11 -23 5 -4 11 -2 13 4 3 10 9 9 20 -3
9 -8 24 -13 34 -11 11 3 19 1 19 -3 0 -16 55 -5 58 11 4 24 -48 32 -72 11 -18
-16 -18 -16 -11 8 7 22 6 23 -8 12 -10 -9 -16 -9 -19 -2 -2 7 -10 6 -23 -4z
m92 -28 c-3 -8 -6 -5 -6 6 -1 11 2 17 5 13 3 -3 4 -12 1 -19z"/>
<path d="M9338 2249 c-10 -5 -18 -18 -18 -27 0 -13 2 -14 9 -4 7 11 9 11 14
-2 4 -11 18 -14 47 -13 23 2 44 -1 46 -5 3 -4 11 -8 17 -8 8 0 7 3 -2 9 -7 5
-11 13 -7 19 3 5 -1 12 -9 16 -8 3 -19 -3 -24 -12 -7 -12 -10 -13 -11 -3 0 12
-28 40 -40 40 -3 0 -13 -4 -22 -10z m32 -20 c0 -5 -4 -9 -10 -9 -5 0 -10 7
-10 16 0 8 5 12 10 9 6 -3 10 -10 10 -16z"/>
<path d="M9732 2528 c-24 -31 -43 -83 -86 -239 -48 -172 -51 -186 -38 -206 8
-13 104 -35 277 -63 87 -15 115 -16 134 -7 30 15 32 20 66 137 15 52 34 115
43 140 8 25 21 70 27 101 11 52 10 57 -8 69 -17 10 -356 80 -392 80 -7 0 -17
-6 -23 -12z m269 -86 l107 -17 -24 -85 c-71 -248 -83 -280 -107 -280 -12 0
-87 11 -167 25 -80 14 -146 25 -147 25 -8 0 1 41 37 173 59 214 46 195 127
185 37 -4 116 -16 174 -26z"/>
<path d="M9822 2404 c-11 -20 -42 -122 -42 -136 0 -5 11 -14 25 -20 14 -6 25
-17 25 -25 0 -7 5 -13 10 -13 6 0 10 4 10 9 0 6 25 9 56 8 l57 -2 23 75 c13
41 22 80 20 87 -4 10 -22 15 -128 29 -39 5 -48 3 -56 -12z m161 -21 c4 -2 5
-14 1 -27 -3 -12 -7 -29 -8 -37 -2 -8 -9 -29 -16 -48 -13 -33 -13 -33 -64 -27
-92 12 -99 16 -92 45 4 14 9 37 12 50 13 59 20 64 92 56 37 -4 70 -9 75 -12z"/>
<path d="M9856 2372 c-3 -6 -4 -17 -1 -24 3 -8 -1 -21 -10 -28 -8 -7 -15 -18
-15 -25 0 -18 37 -25 50 -10 9 10 6 14 -12 17 -23 4 -23 5 4 16 14 6 29 16 33
21 10 17 35 13 29 -4 -4 -8 -10 -13 -14 -10 -14 9 -18 -34 -5 -52 13 -17 14
-16 23 7 16 44 23 80 15 82 -5 0 -19 2 -33 3 -14 2 -32 6 -41 10 -10 3 -20 2
-23 -3z m34 -22 c0 -5 -4 -10 -10 -10 -5 0 -10 5 -10 10 0 6 5 10 10 10 6 0
10 -4 10 -10z"/>
<path d="M9710 2174 c0 -8 5 -12 10 -9 6 3 10 10 10 16 0 5 -4 9 -10 9 -5 0
-10 -7 -10 -16z"/>
<path d="M9740 2169 c0 -6 5 -7 10 -4 6 3 10 -3 10 -14 0 -24 16 -36 26 -20 5
8 8 8 13 0 4 -6 23 -13 42 -16 32 -4 34 -3 35 27 l1 31 -19 -24 c-19 -24 -19
-24 -13 -1 4 13 2 22 -5 22 -6 0 -15 -10 -20 -22 l-9 -23 0 24 c-1 24 -1 24
-22 5 -21 -19 -22 -19 -15 1 5 16 1 21 -14 22 -11 1 -20 -3 -20 -8z"/>
<path d="M9890 2130 c0 -16 5 -30 10 -30 6 0 10 14 10 30 0 17 -4 30 -10 30
-5 0 -10 -13 -10 -30z"/>
<path d="M9735 2140 c-3 -5 -1 -10 4 -10 6 0 11 5 11 10 0 6 -2 10 -4 10 -3 0
-8 -4 -11 -10z"/>
<path d="M9920 2119 c0 -14 5 -19 15 -16 8 4 17 2 20 -3 9 -15 22 -12 29 7 11
28 -11 39 -35 17 -20 -17 -22 -17 -16 -1 4 9 2 17 -3 17 -6 0 -10 -9 -10 -21z
m60 2 c0 -6 -4 -13 -10 -16 -5 -3 -10 1 -10 9 0 9 5 16 10 16 6 0 10 -4 10 -9z"/>
</g>
</svg>
